# Blender 3.3.1
# www.blender.org
mtllib stone1.mtl
o Cube
v 64.000000 0.000000 -64.000000
v 64.000000 -128.000000 -64.000000
v 64.000000 0.000000 64.000000
v 64.000000 -128.000000 64.000000
v -64.000000 0.000000 -64.000000
v -64.000000 -128.000000 -64.000000
v -64.000000 0.000000 64.000000
v -64.000000 -128.000000 64.000000
vn -0.0000 1.0000 -0.0000
vn -0.0000 -0.0000 1.0000
vn -1.0000 -0.0000 -0.0000
vn -0.0000 -1.0000 -0.0000
vn 1.0000 -0.0000 -0.0000
vn -0.0000 -0.0000 -1.0000
vt 1.000000 0.500000
vt 0.000000 0.500000
vt 0.449395 0.107334
vt 1.000000 0.000000
vt 0.000000 0.000000
vt 0.000000 1.000000
vt 1.000000 0.500000
vt 0.000000 0.500000
vt 1.000000 0.000000
vt 0.449395 0.099698
vt 0.000000 0.000000
vt 0.000000 0.500000
vt 1.000000 0.500000
vt 0.000000 0.000000
vt 0.464667 0.107334
vt 1.000000 0.000000
vt 1.000000 1.000000
vt 0.000000 0.500000
vt 1.000000 0.500000
vt 0.000000 0.000000
vt 1.000000 0.000000
vt 0.464667 0.099698
s 0
usemtl Material
f 1/2/1 5/13/1 7/17/1 3/6/1
f 4/9/2 3/7/2 7/18/2 8/20/2
f 8/21/3 7/19/3 5/12/3 6/14/3
f 6/15/4 2/3/4 4/10/4 8/22/4
f 2/4/5 1/1/5 3/8/5 4/11/5
f 6/16/6 5/13/6 1/2/6 2/5/6
