# Blender 3.3.1
# www.blender.org
mtllib corner.mtl
o Plane.001
v -64.000000 0.000000 64.000000
v 64.000000 0.000000 64.000000
v -64.000000 0.000000 -64.000000
v 64.000000 0.000000 -64.000000
v 64.000000 64.000000 64.000000
v -48.000000 64.000000 64.000000
v -64.000000 64.000000 -64.000000
v -64.000000 0.000000 48.000000
v -48.000000 64.000000 -64.000000
v -48.000000 0.000000 -64.000000
v -64.000000 64.000000 64.000000
v -64.000000 64.000000 48.000000
v -48.000000 64.000000 48.000000
v -48.000000 0.000000 64.000000
v 64.000000 0.000000 48.000000
v 64.000000 64.000000 48.000000
v -48.000000 0.000000 48.000000
vn -0.0000 -0.0000 -1.0000
vn 1.0000 -0.0000 -0.0000
vn -0.0000 -0.0000 1.0000
vn -0.0000 1.0000 -0.0000
vn -1.0000 -0.0000 -0.0000
vt 0.000000 0.000000
vt 0.250000 0.000000
vt 2.000000 0.000000
vt 0.000000 0.000000
vt 0.250000 0.000000
vt 0.000000 0.000000
vt 2.000000 2.000000
vt 2.000000 1.000000
vt 2.000000 0.750000
vt 0.000000 1.000000
vt 0.250000 1.000000
vt 0.000000 1.000000
vt 0.000000 0.750000
vt 0.250000 0.750000
vt 0.250000 1.000000
vt 2.000000 1.000000
vt 0.000000 1.000000
vt 0.000000 0.000000
vt 2.000000 0.000000
vt 0.000000 1.000000
vt 2.000000 1.000000
vt 2.000000 0.750000
vt 0.000000 0.000000
vt 2.000000 0.000000
vt 0.250000 2.000000
vt 0.000000 1.000000
vt 0.000000 0.750000
vt 0.250000 1.000000
vt 0.000000 1.000000
vt 2.000000 1.000000
vt 0.000000 0.750000
vt 0.000000 1.000000
vt 2.000000 1.000000
vt 0.250000 1.000000
vt 0.250000 0.000000
vt 0.000000 0.000000
vt 0.250000 0.000000
vt 0.000000 0.000000
vt 2.000000 0.250000
vt 2.000000 1.000000
vt 0.250000 1.000000
vt 0.000000 1.000000
vt 0.000000 0.000000
vt 2.000000 0.000000
vt 0.250000 0.250000
s 0
usemtl Stone1.003
f 10/23/1 3/5/1 7/15/1 9/20/1
f 17/43/2 10/24/2 9/21/2 13/32/2
f 1/1/3 14/35/3 6/11/3 11/26/3
f 13/31/4 9/22/4 7/16/4 12/29/4
f 14/36/3 2/3/3 5/8/3 6/12/3
f 6/13/4 5/9/4 16/40/4 13/32/4
f 2/4/2 15/37/2 16/41/2 5/10/2
f 15/38/1 17/44/1 13/33/1 16/42/1
f 11/27/4 6/14/4 13/34/4 12/29/4
f 8/18/5 1/2/5 11/28/5 12/29/5
f 3/6/5 8/19/5 12/30/5 7/17/5
f 4/7/4 10/25/4 17/45/4 15/39/4
