# Blender 3.3.1
# www.blender.org
mtllib ledge-side.mtl
o Cube.003
v 25.896614 -57.896614 0.000000
v 25.896614 -6.103386 0.000000
v -32.000000 0.000000 0.000000
v -32.000000 -64.000000 0.000000
v 25.896614 -57.896614 32.000000
v 25.896614 -6.103386 -32.000000
v 0.000000 0.000000 0.000000
v 32.000000 -32.000000 0.000000
v 25.896614 -57.896614 -32.000000
v 25.896614 -6.103386 32.000000
v 0.000000 -64.000000 0.000000
v -32.000000 0.000000 -32.000000
v -32.000000 0.000000 32.000000
v -32.000000 -64.000000 32.000000
v -32.000000 -64.000000 -32.000000
v 0.000000 0.000000 32.000000
v 0.000000 0.000000 -32.000000
v 32.000000 -32.000000 32.000000
v 0.000000 -64.000000 32.000000
v 32.000000 -32.000000 -32.000000
v 0.000000 -64.000000 -32.000000
vn 0.1155 -0.9933 -0.0000
vn 0.7071 -0.7071 -0.0000
vn 1.0000 -0.0000 -0.0000
vn 0.7071 0.7071 -0.0000
vn 0.1155 0.9933 -0.0000
vn -0.0000 1.0000 -0.0000
vn -0.0000 -1.0000 -0.0000
vt 0.065110 0.028649
vt 1.000000 0.000000
vt 0.065110 0.018226
vt 0.000000 0.000000
vt 0.000000 0.500000
vt 0.000000 1.000000
vt 1.000000 0.500000
vt 1.000000 1.000000
vt 1.000000 0.500000
vt 0.044265 0.018226
vt 0.044265 0.028649
vt 0.500000 0.000000
vt 0.065110 0.023438
vt 0.500000 0.500000
vt 0.000000 0.750000
vt 0.500000 0.500000
vt 0.500000 1.000000
vt 1.000000 0.250000
vt 0.000000 0.250000
vt 0.065110 0.023438
vt 0.500000 0.000000
vt 0.000000 0.750000
vt 0.500000 0.500000
vt 0.054688 0.018226
vt 0.054688 0.028649
vt 1.000000 0.750000
vt 1.000000 0.750000
vt 0.044265 0.023438
vt 0.044265 0.023438
vt 0.500000 0.750000
vt 0.500000 0.750000
vt 0.500000 0.250000
vt 0.054688 0.023438
vt 0.500000 0.250000
vt 0.054688 0.023438
s 1
usemtl Ledge.023
f 21/35/1 9/20/2 1/1/2 11/25/1
f 20/34/3 6/14/4 2/5/4 8/19/3
f 17/31/5 12/26/6 3/8/6 7/17/5
f 2/5/4 7/16/5 16/30/5 10/22/4
f 7/16/5 3/9/6 13/27/6 16/30/5
f 6/15/4 17/31/5 7/17/5 2/6/4
f 1/2/2 8/18/3 18/32/3 5/12/2
f 8/18/3 2/7/4 10/23/4 18/32/3
f 4/10/7 11/24/1 19/33/1 14/28/7
f 11/24/1 1/3/2 5/13/2 19/33/1
f 9/21/2 20/34/3 8/19/3 1/4/2
f 15/29/7 21/35/1 11/25/1 4/11/7
