# Blender 3.3.1
# www.blender.org
mtllib ledge-corner.mtl
o Cube.002
v 23.862152 -55.862152 -23.862152
v 23.862152 -8.137848 -23.862152
v 25.896614 -57.896614 32.000000
v 25.896614 -6.103386 32.000000
v -32.000000 -6.103386 -25.896614
v -32.000000 0.000000 32.000000
v -32.000000 -57.896614 -25.896614
v -32.000000 -64.000000 32.000000
v 0.000000 -6.103386 -25.896614
v 25.896614 -32.000000 -25.896614
v 25.896614 -57.896614 0.000000
v 25.896614 -6.103386 0.000000
v 32.000000 -32.000000 32.000000
v 0.000000 0.000000 32.000000
v 0.000000 -57.896614 -25.896614
v 0.000000 -64.000000 32.000000
v -32.000000 0.000000 0.000000
v -32.000000 -64.000000 0.000000
v -32.000000 -32.000000 -32.000000
v 0.000000 0.000000 0.000000
v 0.000000 -64.000000 0.000000
v 32.000000 -32.000000 0.000000
v 0.000000 -32.000000 -32.000000
vn 0.0835 -0.0000 -0.9965
vn 0.0976 0.7037 -0.7037
vn 0.5774 0.5774 -0.5774
vn 0.7071 -0.0000 -0.7071
vn 0.9965 -0.0000 -0.0835
vn 0.7037 0.7037 -0.0976
vn 0.7071 0.7071 -0.0000
vn 1.0000 -0.0000 -0.0000
vn 0.0993 -0.9901 -0.0993
vn 0.7037 -0.7037 -0.0976
vn 0.7071 -0.7071 -0.0000
vn 0.1155 -0.9933 -0.0000
vn 0.0993 0.9901 -0.0993
vn -0.0000 0.9933 -0.1155
vn -0.0000 1.0000 -0.0000
vn 0.1155 0.9933 -0.0000
vn -0.0000 0.7071 -0.7071
vn -0.0000 -0.9933 -0.1155
vn -0.0000 -1.0000 -0.0000
vn -0.0000 -0.7071 -0.7071
vn 0.0976 -0.7037 -0.7037
vn 0.5774 -0.5774 -0.5774
vn -0.0000 -0.0000 -1.0000
vt 0.065110 0.018226
vt 1.000000 0.000000
vt 0.000000 0.000000
vt 0.000000 0.500000
vt 1.000000 0.500000
vt 0.065110 0.028649
vt 0.000000 0.000000
vt 0.000000 0.500000
vt 0.000000 1.000000
vt 1.000000 0.500000
vt 1.000000 1.000000
vt 0.044265 0.018226
vt 1.000000 0.000000
vt 0.044265 0.028649
vt 0.500000 0.500000
vt 1.000000 0.250000
vt 0.000000 0.250000
vt 0.065110 0.023438
vt 0.500000 0.000000
vt 0.000000 0.750000
vt 0.500000 0.500000
vt 0.000000 0.250000
vt 0.500000 1.000000
vt 0.054688 0.018226
vt 0.500000 0.000000
vt 0.054688 0.028649
vt 1.000000 0.750000
vt 0.044265 0.023438
vt 1.000000 0.250000
vt 0.500000 0.750000
vt 0.054688 0.023438
vt 0.500000 0.250000
vt 0.500000 0.250000
s 1
usemtl Ledge.006
f 23/33/1 9/15/2 2/4/3 10/17/4
f 22/32/5 12/21/6 4/8/7 13/22/8
f 21/31/9 11/18/10 3/6/11 16/26/12
f 20/30/13 17/27/14 6/11/15 14/23/16
f 12/20/6 20/30/13 14/23/16 4/9/7
f 2/4/3 9/15/2 20/30/13 12/20/6
f 9/15/2 5/10/17 17/27/14 20/30/13
f 18/28/18 21/31/9 16/26/12 8/14/19
f 7/12/20 15/24/21 21/31/9 18/28/18
f 15/24/21 1/1/22 11/18/10 21/31/9
f 11/19/10 22/32/5 13/22/8 3/7/11
f 1/2/22 10/16/4 22/32/5 11/19/10
f 10/16/4 2/5/3 12/21/6 22/32/5
f 15/25/21 23/33/1 10/17/4 1/3/22
f 7/13/20 19/29/23 23/33/1 15/25/21
f 19/29/23 5/10/17 9/15/2 23/33/1
