# Blender 3.3.1
# www.blender.org
mtllib corner-in.mtl
o Plane
v -1.000000 0.000000 1.000000
v -1.000000 0.000000 2.000000
v -2.000000 0.000000 1.000000
v -2.000000 0.000000 2.000000
v -2.000000 2.000000 1.000000
v -1.000000 2.000000 2.000000
v -2.000000 2.000000 2.000000
v -2.000000 4.000000 1.000000
v -1.000000 4.000000 2.000000
v -2.000000 4.000000 2.000000
v -2.000000 6.000000 1.000000
v -1.000000 6.000000 1.000000
v -2.000000 6.000000 1.000000
v -1.000000 6.000000 2.000000
v -2.000000 6.000000 2.000000
vn -0.0000 1.0000 -0.0000
vn 1.0000 -0.0000 -0.0000
vn -0.0000 -0.0000 -1.0000
vn -0.0000 -1.0000 -0.0000
vt 0.312500 0.875000
vt 0.250000 0.875000
vt 0.437500 0.625000
vt 0.312500 0.937500
vt 0.437500 0.625000
vt 0.250000 0.937500
vt 0.375000 0.625000
vt 0.437500 0.750000
vt 0.062500 0.750000
vt 0.437500 0.750000
vt 0.062500 0.750000
vt 0.375000 0.750000
vt 0.000000 0.750000
vt 0.062500 0.875000
vt 0.062500 0.875000
vt 0.000000 0.875000
vt 0.250000 0.875000
vt 0.312500 0.875000
vt 0.062500 1.000000
vt 0.062500 1.000000
vt 0.312500 0.937500
vt 0.250000 0.937500
vt 0.000000 1.000000
s 0
usemtl Tiles1
f 4/6/1 2/2/1 1/1/1 3/4/1
f 4/7/2 3/5/2 5/8/2 7/12/2
f 2/3/3 4/7/3 7/12/3 6/10/3
f 9/15/3 10/16/3 15/23/3 14/20/3
f 7/13/2 5/9/2 8/14/2 10/16/2
f 6/11/3 7/13/3 10/16/3 9/15/3
f 11/17/4 12/18/4 14/21/4 15/22/4
f 10/16/2 8/14/2 13/19/2 15/23/2
