# Blender 3.3.1
# www.blender.org
mtllib door-top.mtl
o Cube.004
v 2.250000 3.500000 1.000000
v 2.250000 6.000000 1.000000
v 1.750000 3.500000 1.000000
v 1.750000 6.000000 1.000000
v 2.250000 2.500000 -1.000000
v 2.250000 6.000000 -1.000000
v 1.750000 2.500000 -1.000000
v 1.750000 6.000000 -1.000000
vn -1.0000 -0.0000 -0.0000
vn 1.0000 -0.0000 -0.0000
vn -0.0000 -0.8944 0.4472
vt 0.125000 0.242188
vt 0.007812 0.187500
vt 0.125000 0.375000
vt 0.125000 0.242188
vt 0.007812 0.187500
vt 0.125000 0.375000
vt 0.000000 0.179688
vt 0.007812 0.187500
vt 0.000000 0.375000
vt 0.000000 0.179688
vt 0.007812 0.187500
vt 0.000000 0.375000
s 0
usemtl Tiles1
f 3/4/1 4/6/1 8/12/1 7/10/1
f 5/7/2 6/9/2 2/3/2 1/1/2
f 3/5/3 7/11/3 5/8/3 1/2/3
