# Blender 3.3.1
# www.blender.org
mtllib flat-side-dirt.mtl
o Plane.017
v 3.000002 0.000000 -3.000002
v 2.999998 0.000000 -5.000002
v 1.000002 0.000000 -2.999998
v 0.999998 0.000000 -4.999998
v 1.000002 6.000000 -2.999998
v 0.999998 6.000000 -4.999998
v 3.000002 6.000000 -3.000002
v 2.999998 6.000000 -5.000002
vn -0.0000 1.0000 -0.0000
vn -0.0000 -1.0000 -0.0000
vt 0.125000 0.125000
vt 0.250000 0.125000
vt 0.125000 0.250000
vt 0.250000 0.250000
vt 0.312500 0.750000
vt 0.437500 0.750000
vt 0.312500 0.875000
vt 0.437500 0.875000
s 0
usemtl Tiles1
f 1/1/1 2/2/1 4/4/1 3/3/1
f 5/5/2 6/6/2 8/8/2 7/7/2
