# Blender 3.3.1
# www.blender.org
mtllib flat-dirt.mtl
o Plane.019
v 1.000001 0.000000 -5.000000
v 3.000000 0.000000 -5.000000
v 0.999999 0.000000 -7.000000
v 2.999999 0.000000 -7.000000
v 0.999999 6.000000 -7.000000
v 2.999999 6.000000 -7.000000
v 1.000001 6.000000 -5.000000
v 3.000000 6.000000 -5.000000
vn -0.0000 1.0000 -0.0000
vn -0.0000 -1.0000 -0.0000
vt 0.250000 0.125000
vt 0.375000 0.125000
vt 0.250000 0.250000
vt 0.375000 0.250000
vt 0.312500 0.750000
vt 0.437500 0.750000
vt 0.312500 0.875000
vt 0.437500 0.875000
s 0
usemtl Tiles1
f 1/1/1 2/2/1 4/4/1 3/3/1
f 5/5/2 6/6/2 8/8/2 7/7/2
