# Blender 3.3.1
# www.blender.org
mtllib iron-bridge.mtl
o Cube.003
v 7.000000 -0.500000 1.000000
v 7.000000 0.000000 1.000000
v 7.000000 -0.500000 -1.000000
v 7.000000 0.000000 -1.000000
v 8.000000 -0.500000 1.000000
v 8.000000 0.000000 1.000000
v 8.000000 -0.500000 -1.000000
v 8.000000 0.000000 -1.000000
vn -1.0000 -0.0000 -0.0000
vn -0.0000 -0.0000 -1.0000
vn 1.0000 -0.0000 -0.0000
vn -0.0000 -0.0000 1.0000
vn -0.0000 -1.0000 -0.0000
vn -0.0000 1.0000 -0.0000
vt 0.093750 0.500000
vt 0.093750 0.437500
vt 0.085938 0.476562
vt 0.062500 0.437500
vt 0.062500 0.500000
vt 0.093750 0.375000
vt 0.093750 0.500000
vt 0.085938 0.476562
vt 0.062500 0.500000
vt 0.062500 0.375000
vt 0.093750 0.375000
vt 0.093750 0.500000
vt 0.085938 0.476562
vt 0.062500 0.375000
vt 0.062500 0.500000
vt 0.000000 0.500000
vt 0.093750 0.437500
vt 0.093750 0.500000
vt 0.085938 0.476562
vt 0.062500 0.437500
vt 0.062500 0.500000
vt 0.000000 0.375000
s 0
usemtl Tiles1
f 1/1/1 2/5/1 4/10/1 3/6/1
f 3/7/2 4/9/2 8/20/2 7/17/2
f 7/18/3 8/21/3 6/14/3 5/11/3
f 5/12/4 6/15/4 2/4/4 1/2/4
f 3/8/5 7/19/5 5/13/5 1/3/5
f 8/22/6 4/10/6 2/5/6 6/16/6
