# Blender 3.3.1
# www.blender.org
mtllib orb.mtl
o Cube.006
v 0.315231 1.222577 0.401009
v 0.315231 1.943935 0.401009
v -0.401009 1.222577 0.315231
v -0.401009 1.943935 0.315231
v 0.401009 1.222577 -0.315231
v 0.401009 1.943935 -0.315231
v -0.315231 1.222577 -0.401009
v -0.315231 1.943935 -0.401009
v -0.047031 1.187747 0.392703
v 0.345673 1.583256 0.439734
v -0.047031 1.978766 0.392703
v -0.439734 1.583256 0.345673
v -0.392703 1.187747 -0.047031
v -0.392703 1.978766 -0.047031
v -0.345673 1.583256 -0.439734
v 0.047031 1.187747 -0.392703
v 0.047031 1.978766 -0.392703
v 0.439734 1.583256 -0.345673
v 0.392703 1.187747 0.047031
v 0.392703 1.978766 0.047031
v 0.000000 2.083256 0.000000
v 0.000000 1.083256 0.000000
v 0.496452 1.583256 0.059456
v 0.059456 1.583256 -0.496452
v -0.496452 1.583256 -0.059456
v -0.059456 1.583256 0.496452
vn -0.1189 -0.0000 0.9929
vn -0.0841 0.7071 0.7021
vn -0.6419 0.5774 0.5046
vn -0.7862 -0.0000 0.6180
vn -0.9929 -0.0000 -0.1189
vn -0.7021 0.7071 -0.0841
vn -0.5046 0.5774 -0.6419
vn -0.6180 -0.0000 -0.7862
vn 0.1189 -0.0000 -0.9929
vn 0.0841 0.7071 -0.7021
vn 0.6419 0.5774 -0.5046
vn 0.7862 -0.0000 -0.6180
vn 0.9929 -0.0000 0.1189
vn 0.7021 0.7071 0.0841
vn 0.5046 0.5774 0.6419
vn 0.6180 -0.0000 0.7862
vn -0.0000 -1.0000 -0.0000
vn 0.0841 -0.7071 -0.7021
vn 0.6419 -0.5774 -0.5046
vn 0.7021 -0.7071 0.0841
vn -0.0000 1.0000 -0.0000
vn -0.0841 -0.7071 0.7021
vn 0.5046 -0.5774 0.6419
vn -0.6419 -0.5774 0.5046
vn -0.7021 -0.7071 -0.0841
vn -0.5046 -0.5774 -0.6419
vt 0.179688 0.039062
vt 0.125000 0.031250
vt 0.218750 0.031250
vt 0.125000 0.125000
vt 0.164062 0.109375
vt 0.218750 0.125000
vt 0.179688 0.039062
vt 0.218750 0.031250
vt 0.125000 0.031250
vt 0.125000 0.125000
vt 0.164062 0.109375
vt 0.218750 0.125000
vt 0.179688 0.039062
vt 0.218750 0.031250
vt 0.125000 0.031250
vt 0.125000 0.125000
vt 0.164062 0.109375
vt 0.218750 0.125000
vt 0.179688 0.039062
vt 0.218750 0.031250
vt 0.125000 0.031250
vt 0.125000 0.125000
vt 0.164062 0.109375
vt 0.218750 0.125000
vt 0.179688 0.039062
vt 0.171875 0.031250
vt 0.125000 0.078125
vt 0.218750 0.078125
vt 0.164062 0.109375
vt 0.171875 0.125000
vt 0.218750 0.078125
vt 0.125000 0.078125
vt 0.179688 0.039062
vt 0.171875 0.031250
vt 0.164062 0.109375
vt 0.171875 0.125000
vt 0.218750 0.078125
vt 0.125000 0.078125
vt 0.179688 0.039062
vt 0.171875 0.031250
vt 0.164062 0.109375
vt 0.171875 0.125000
vt 0.218750 0.078125
vt 0.125000 0.078125
vt 0.179688 0.039062
vt 0.171875 0.031250
vt 0.164062 0.109375
vt 0.171875 0.125000
vt 0.164062 0.109375
vt 0.179688 0.039062
vt 0.171875 0.078125
vt 0.171875 0.078125
vt 0.171875 0.078125
vt 0.171875 0.078125
s 1
usemtl Tiles1
f 26/54/1 11/30/2 4/10/3 12/32/4
f 25/53/5 14/36/6 8/22/7 15/38/8
f 24/52/9 17/42/10 6/16/11 18/44/12
f 23/51/13 20/48/14 2/4/15 10/27/16
f 22/50/17 16/39/18 5/13/19 19/45/20
f 21/49/21 11/29/2 2/5/15 20/47/14
f 17/41/10 21/49/21 20/47/14 6/17/11
f 8/23/7 14/35/6 21/49/21 17/41/10
f 14/35/6 4/11/3 11/29/2 21/49/21
f 9/25/22 22/50/17 19/45/20 1/1/23
f 3/7/24 13/33/25 22/50/17 9/25/22
f 13/33/25 7/19/26 16/39/18 22/50/17
f 19/46/20 23/51/13 10/27/16 1/2/23
f 5/14/19 18/43/12 23/51/13 19/46/20
f 18/43/12 6/18/11 20/48/14 23/51/13
f 16/40/18 24/52/9 18/44/12 5/15/19
f 7/20/26 15/37/8 24/52/9 16/40/18
f 15/37/8 8/24/7 17/42/10 24/52/9
f 13/34/25 25/53/5 15/38/8 7/21/26
f 3/8/24 12/31/4 25/53/5 13/34/25
f 12/31/4 4/12/3 14/36/6 25/53/5
f 9/26/22 26/54/1 12/32/4 3/9/24
f 1/3/23 10/28/16 26/54/1 9/26/22
f 10/28/16 2/6/15 11/30/2 26/54/1
