# Blender 3.3.1
# www.blender.org
mtllib pit-corner-l.mtl
o Plane.008
v 3.000000 0.000000 1.000000
v 3.000000 6.000000 1.000000
v 5.000000 6.000000 1.000000
v 3.000000 2.000000 2.000000
v 3.000000 0.000000 2.000000
v 5.000000 0.000000 2.000000
v 3.000000 6.000000 2.000000
v 5.000000 6.000000 2.000000
v 5.000000 2.000000 2.000000
v 5.000000 4.000000 2.000000
v 3.000000 4.000000 2.000000
v 5.000000 6.000000 2.000000
v 3.000000 6.000000 2.000000
v 4.000000 0.000000 1.000000
v 4.000000 0.000000 2.000000
v 4.000000 2.000000 2.000000
v 4.000000 4.000000 2.000000
v 4.000000 6.000000 2.000000
v 5.000000 -2.000000 2.000000
v 4.000000 -2.000000 1.000000
v 4.000000 -2.000000 2.000000
v 4.000000 6.000000 1.000000
v 4.000000 6.000000 2.000000
v 5.000000 -2.000000 1.000000
v 5.000000 -2.000000 2.000000
v 4.000000 -2.000000 1.000000
v 4.000000 -2.000000 2.000000
vn -0.0000 -0.0000 -1.0000
vn -0.0000 -1.0000 -0.0000
vn -0.0000 1.0000 -0.0000
vn 1.0000 -0.0000 -0.0000
vt 0.312500 0.875000
vt 0.312500 0.875000
vt 0.312500 0.750000
vt 0.250000 0.750000
vt 0.250000 0.625000
vt 0.312500 0.937500
vt 0.062500 0.625000
vt 0.187500 0.625000
vt 0.250000 0.875000
vt 0.250000 0.750000
vt 0.062500 0.750000
vt 0.125000 0.750000
vt 0.125000 0.875000
vt 0.250000 0.875000
vt 0.125000 1.000000
vt 0.250000 1.000000
vt 0.250000 0.875000
vt 0.187500 0.625000
vt 0.187500 0.625000
vt 0.250000 0.937500
vt 0.125000 0.625000
vt 0.125000 0.750000
vt 0.187500 0.750000
vt 0.187500 0.875000
vt 0.187500 1.000000
vt 0.187500 0.500000
vt 0.187500 0.500000
vt 0.125000 0.500000
vt 0.312500 0.812500
vt 0.250000 0.812500
vt 0.312500 0.625000
vt 0.250000 0.625000
vt 0.312500 0.687500
vt 0.250000 0.687500
s 0
usemtl Tiles1
f 16/23/1 4/4/1 11/14/1 17/24/1
f 22/29/2 3/3/2 8/10/2 23/30/2
f 15/19/1 5/5/1 4/4/1 16/23/1
f 17/24/1 11/14/1 13/16/1 18/25/1
f 10/13/1 17/24/1 18/25/1 12/15/1
f 6/7/1 15/21/1 16/22/1 9/11/1
f 9/12/1 16/23/1 17/24/1 10/13/1
f 5/6/3 15/20/3 14/17/3 1/1/3
f 15/21/1 6/8/1 19/26/1 21/28/1
f 14/18/4 15/21/4 21/28/4 20/27/4
f 2/2/2 22/29/2 23/30/2 7/9/2
f 26/33/3 27/34/3 25/32/3 24/31/3
