# Blender 3.3.1
# www.blender.org
mtllib pit-side-tall.mtl
o Plane.002
v 7.000000 -2.000000 2.000000
v 5.000000 -2.000000 2.000000
v 5.000000 0.000000 2.000000
v 7.000000 0.000000 2.000000
v 5.000000 2.000000 2.000000
v 7.000000 2.000000 2.000000
v 5.000000 4.000000 2.000000
v 7.000000 4.000000 2.000000
v 5.000000 6.000000 2.000000
v 5.000000 6.000000 1.000000
v 7.000000 6.000000 1.000000
v 7.000000 6.000000 2.000000
v 5.000000 0.000000 2.000000
v 7.000000 0.000000 2.000000
v 6.000000 0.000000 2.000000
v 6.000000 2.000000 2.000000
v 6.000000 4.000000 2.000000
v 6.000000 6.000000 1.000000
v 6.000000 6.000000 2.000000
v 5.000000 -2.000000 2.000000
v 5.000000 -2.000000 1.000000
v 7.000000 -2.000000 1.000000
v 7.000000 -2.000000 2.000000
v 6.000000 -2.000000 1.000000
v 6.000000 -2.000000 2.000000
vn -0.0000 -0.0000 -1.0000
vn -0.0000 -1.0000 -0.0000
vn -0.0000 1.0000 -0.0000
vt 0.250000 0.500000
vt 0.375000 0.500000
vt 0.125000 0.625000
vt 0.187500 0.625000
vt 0.125000 0.750000
vt 0.250000 0.757812
vt 0.125000 0.757812
vt 0.187500 0.750000
vt 0.250000 0.882812
vt 0.250000 0.875000
vt 0.125000 0.875000
vt 0.125000 0.882812
vt 0.250000 1.000000
vt 0.250000 0.875000
vt 0.312500 0.875000
vt 0.312500 0.750000
vt 0.250000 0.750000
vt 0.125000 1.000000
vt 0.375000 0.625000
vt 0.250000 0.625000
vt 0.062500 0.625000
vt 0.125000 0.625000
vt 0.062500 0.750000
vt 0.187500 0.757812
vt 0.062500 0.757812
vt 0.125000 0.750000
vt 0.187500 0.882812
vt 0.187500 0.875000
vt 0.062500 0.875000
vt 0.062500 0.882812
vt 0.312500 0.812500
vt 0.187500 1.000000
vt 0.062500 1.000000
vt 0.250000 0.812500
vt 0.250000 0.750000
vt 0.312500 0.750000
vt 0.312500 0.625000
vt 0.250000 0.625000
vt 0.312500 0.687500
vt 0.250000 0.687500
s 0
usemtl Tiles1
f 1/1/1 2/2/1 13/19/1 14/20/1
f 15/21/1 3/3/1 5/5/1 16/23/1
f 16/24/1 5/6/1 7/9/1 17/27/1
f 18/31/2 11/16/2 12/17/2 19/34/2
f 17/28/1 7/10/1 9/13/1 19/32/1
f 8/11/1 17/29/1 19/33/1 12/18/1
f 10/15/2 18/31/2 19/34/2 9/14/2
f 6/7/1 16/25/1 17/30/1 8/12/1
f 4/4/1 15/22/1 16/26/1 6/8/1
f 24/39/3 25/40/3 23/38/3 22/37/3
f 21/36/3 20/35/3 25/40/3 24/39/3
