# Blender 3.3.1
# www.blender.org
mtllib pit-edge.mtl
o Plane.010
v 3.000000 0.000000 1.000000
v 4.000000 -2.000000 1.000000
v 3.000000 0.000000 -1.000000
v 4.000000 -2.000000 -1.000000
v 5.000000 -2.000000 -1.000000
v 5.000000 -2.000000 1.000000
v 4.000000 -2.000000 -1.000000
v 4.000000 -2.000000 1.000000
v 4.000000 0.000000 1.000000
v 4.000000 0.000000 -1.000000
v 5.000000 6.000000 -1.000000
v 3.000000 6.000000 -1.000000
v 5.000000 6.000000 1.000000
v 3.000000 6.000000 1.000000
vn 1.0000 -0.0000 -0.0000
vn -0.0000 1.0000 -0.0000
vn -0.0000 -1.0000 -0.0000
vt 0.312500 0.750000
vt 0.250000 0.500000
vt 0.312500 0.875000
vt 0.375000 0.500000
vt 0.250000 0.750000
vt 0.250000 0.625000
vt 0.312500 0.750000
vt 0.312500 0.625000
vt 0.250000 0.625000
vt 0.250000 0.750000
vt 0.375000 0.625000
vt 0.250000 0.875000
vt 0.312500 0.750000
vt 0.437500 0.750000
vt 0.312500 0.875000
vt 0.437500 0.875000
s 0
usemtl Tiles1
f 9/9/1 2/2/1 4/4/1 10/11/1
f 8/8/2 6/6/2 5/5/2 7/7/2
f 1/1/2 9/10/2 10/12/2 3/3/2
f 11/13/3 13/15/3 14/16/3 12/14/3
