# Blender 3.3.1
# www.blender.org
mtllib wood-bridge.mtl
o Cube.001
v 5.000000 -0.500000 1.000000
v 5.000000 0.000000 1.000000
v 5.000000 -0.500000 -1.000000
v 5.000000 0.000000 -1.000000
v 7.000000 -0.500000 1.000000
v 7.000000 0.000000 1.000000
v 7.000000 -0.500000 -1.000000
v 7.000000 0.000000 -1.000000
vn -1.0000 -0.0000 -0.0000
vn -0.0000 -0.0000 -1.0000
vn 1.0000 -0.0000 -0.0000
vn -0.0000 -0.0000 1.0000
vn -0.0000 -1.0000 -0.0000
vn -0.0000 1.0000 -0.0000
vt 0.218750 0.375000
vt 0.250000 0.500000
vt 0.257812 0.437500
vt 0.250000 0.375000
vt 0.281250 0.500000
vt 0.218750 0.500000
vt 0.218750 0.500000
vt 0.250000 0.375000
vt 0.257812 0.437500
vt 0.250000 0.500000
vt 0.281250 0.375000
vt 0.218750 0.375000
vt 0.218750 0.500000
vt 0.250000 0.375000
vt 0.257812 0.437500
vt 0.250000 0.500000
vt 0.281250 0.375000
vt 0.093750 0.500000
vt 0.250000 0.500000
vt 0.218750 0.375000
vt 0.257812 0.437500
vt 0.281250 0.500000
vt 0.250000 0.375000
vt 0.093750 0.375000
s 0
usemtl Tiles1
f 1/1/1 2/4/1 4/10/1 3/7/1
f 3/8/2 4/11/2 8/22/2 7/19/2
f 7/20/3 8/23/3 6/16/3 5/13/3
f 5/14/4 6/17/4 2/5/4 1/2/4
f 3/9/5 7/21/5 5/15/5 1/3/5
f 8/24/6 4/12/6 2/6/6 6/18/6
