# Blender 3.3.1
# www.blender.org
mtllib ball.mtl
o Cube.018
v -6.452853 -6.452853 6.452853
v -6.452853 6.452853 6.452853
v -6.452853 -6.452853 -6.452853
v -6.452853 6.452853 -6.452853
v 6.452853 -6.452853 6.452853
v 6.452853 6.452853 6.452853
v 6.452853 -6.452853 -6.452853
v 6.452853 6.452853 -6.452853
v -6.839640 -6.839640 0.000000
v -6.839640 0.000000 6.839640
v -6.839640 6.839640 0.000000
v -6.839640 0.000000 -6.839640
v 0.000000 -6.839640 -6.839640
v 0.000000 6.839640 -6.839640
v 6.839640 0.000000 -6.839640
v 6.839640 -6.839640 0.000000
v 6.839640 6.839640 0.000000
v 6.839640 0.000000 6.839640
v 0.000000 -6.839640 6.839640
v 0.000000 6.839640 6.839640
v 0.000000 8.000000 0.000000
v 0.000000 -8.000000 0.000000
v 0.000000 0.000000 8.000000
v 8.000000 0.000000 0.000000
v 0.000000 0.000000 -8.000000
v -8.000000 0.000000 0.000000
v -6.839640 -6.839640 4.000000
v -6.839640 4.000000 6.839640
v -6.839640 6.839640 -4.000000
v -6.839640 -4.000000 -6.839640
v -4.000000 -6.839640 -6.839640
v 4.000000 6.839640 -6.839640
v 6.839640 -4.000000 -6.839640
v 6.839640 -6.839640 -4.000000
v 6.839640 6.839640 4.000000
v 6.839640 -4.000000 6.839640
v 4.000000 -6.839640 6.839640
v -4.000000 6.839640 6.839640
v -6.839640 -6.839640 -4.000000
v -6.839640 -4.000000 6.839640
v -6.839640 6.839640 4.000000
v -6.839640 4.000000 -6.839640
v 4.000000 -6.839640 -6.839640
v -4.000000 6.839640 -6.839640
v 6.839640 4.000000 -6.839640
v 6.839640 -6.839640 4.000000
v 6.839640 6.839640 -4.000000
v 6.839640 4.000000 6.839640
v -4.000000 -6.839640 6.839640
v 4.000000 6.839640 6.839640
v 0.000000 8.000000 4.000000
v 0.000000 8.000000 -4.000000
v 4.000000 8.000000 0.000000
v -4.000000 8.000000 0.000000
v 0.000000 -8.000000 4.000000
v 0.000000 -8.000000 -4.000000
v -4.000000 -8.000000 0.000000
v 4.000000 -8.000000 0.000000
v -4.000000 0.000000 8.000000
v 4.000000 0.000000 8.000000
v 0.000000 -4.000000 8.000000
v 0.000000 4.000000 8.000000
v 8.000000 0.000000 4.000000
v 8.000000 0.000000 -4.000000
v 8.000000 -4.000000 0.000000
v 8.000000 4.000000 0.000000
v 4.000000 0.000000 -8.000000
v -4.000000 0.000000 -8.000000
v 0.000000 -4.000000 -8.000000
v 0.000000 4.000000 -8.000000
v -8.000000 0.000000 -4.000000
v -8.000000 0.000000 4.000000
v -8.000000 -4.000000 0.000000
v -8.000000 4.000000 0.000000
v -8.000000 4.000000 4.000000
v -8.000000 -4.000000 4.000000
v -8.000000 -4.000000 -4.000000
v -4.000000 4.000000 -8.000000
v -4.000000 -4.000000 -8.000000
v 4.000000 -4.000000 -8.000000
v 8.000000 4.000000 -4.000000
v 8.000000 -4.000000 -4.000000
v 8.000000 -4.000000 4.000000
v 4.000000 4.000000 8.000000
v 4.000000 -4.000000 8.000000
v -4.000000 -4.000000 8.000000
v 4.000000 -8.000000 -4.000000
v -4.000000 -8.000000 -4.000000
v -4.000000 -8.000000 4.000000
v -4.000000 8.000000 -4.000000
v 4.000000 8.000000 -4.000000
v 4.000000 8.000000 4.000000
v -4.000000 8.000000 4.000000
v 4.000000 -8.000000 4.000000
v -4.000000 4.000000 8.000000
v 8.000000 4.000000 4.000000
v 4.000000 4.000000 -8.000000
v -8.000000 4.000000 -4.000000
vn -0.9711 0.1688 -0.1688
vn -0.6985 0.6985 -0.1560
vn -0.5774 0.5774 -0.5774
vn -0.6985 0.1560 -0.6985
vn 0.1688 0.1688 -0.9711
vn 0.1560 0.6985 -0.6985
vn 0.5774 0.5774 -0.5774
vn 0.6985 0.1560 -0.6985
vn 0.9711 0.1688 0.1688
vn 0.6985 0.6985 0.1560
vn 0.5774 0.5774 0.5774
vn 0.6985 0.1560 0.6985
vn -0.1688 0.1688 0.9711
vn -0.1560 0.6985 0.6985
vn -0.5774 0.5774 0.5774
vn -0.6985 0.1560 0.6985
vn 0.1688 -0.9711 0.1688
vn 0.6985 -0.6985 0.1560
vn 0.5774 -0.5774 0.5774
vn 0.1560 -0.6985 0.6985
vn -0.1688 0.9711 0.1688
vn -0.6985 0.6985 0.1560
vn 0.1688 0.9711 0.1688
vn -0.0000 0.9812 0.1927
vn -0.0000 0.7071 0.7071
vn 0.1560 0.6985 0.6985
vn 0.1688 0.9711 -0.1688
vn -0.0000 0.9812 -0.1927
vn -0.0000 1.0000 -0.0000
vn 0.1927 0.9812 -0.0000
vn -0.1688 0.9711 -0.1688
vn -0.7071 0.7071 -0.0000
vn -0.1927 0.9812 -0.0000
vn -0.1688 -0.9711 0.1688
vn -0.0000 -0.9812 0.1927
vn -0.0000 -0.7071 0.7071
vn -0.1560 -0.6985 0.6985
vn -0.1688 -0.9711 -0.1688
vn -0.0000 -0.9812 -0.1927
vn -0.0000 -1.0000 -0.0000
vn -0.1927 -0.9812 -0.0000
vn 0.1688 -0.9711 -0.1688
vn 0.6985 -0.6985 -0.1560
vn 0.7071 -0.7071 -0.0000
vn 0.1927 -0.9812 -0.0000
vn -0.1688 -0.1688 0.9711
vn -0.1927 -0.0000 0.9812
vn -0.7071 -0.0000 0.7071
vn -0.6985 -0.1560 0.6985
vn 0.1688 -0.1688 0.9711
vn 0.1927 -0.0000 0.9812
vn -0.0000 -0.0000 1.0000
vn -0.0000 -0.1927 0.9812
vn 0.1688 0.1688 0.9711
vn -0.0000 0.1927 0.9812
vn 0.9711 -0.1688 0.1688
vn 0.9812 -0.0000 0.1927
vn 0.7071 -0.0000 0.7071
vn 0.6985 -0.1560 0.6985
vn 0.9711 -0.1688 -0.1688
vn 0.9812 -0.0000 -0.1927
vn 1.0000 -0.0000 -0.0000
vn 0.9812 -0.1927 -0.0000
vn 0.9711 0.1688 -0.1688
vn 0.6985 0.6985 -0.1560
vn 0.7071 0.7071 -0.0000
vn 0.9812 0.1927 -0.0000
vn 0.1688 -0.1688 -0.9711
vn 0.1927 -0.0000 -0.9812
vn 0.7071 -0.0000 -0.7071
vn 0.6985 -0.1560 -0.6985
vn -0.1688 -0.1688 -0.9711
vn -0.1927 -0.0000 -0.9812
vn -0.0000 -0.0000 -1.0000
vn -0.0000 -0.1927 -0.9812
vn -0.1688 0.1688 -0.9711
vn -0.1560 0.6985 -0.6985
vn -0.0000 0.7071 -0.7071
vn -0.0000 0.1927 -0.9812
vn -0.9711 -0.1688 -0.1688
vn -0.9812 -0.0000 -0.1927
vn -0.7071 -0.0000 -0.7071
vn -0.6985 -0.1560 -0.6985
vn -0.9711 -0.1688 0.1688
vn -0.9812 -0.0000 0.1927
vn -1.0000 -0.0000 -0.0000
vn -0.9812 -0.1927 -0.0000
vn -0.9711 0.1688 0.1688
vn -0.9812 0.1927 -0.0000
vn -0.6985 -0.6985 0.1560
vn -0.7071 -0.7071 -0.0000
vn -0.5774 -0.5774 0.5774
vn -0.6985 -0.6985 -0.1560
vn -0.5774 -0.5774 -0.5774
vn -0.1560 -0.6985 -0.6985
vn -0.0000 -0.7071 -0.7071
vn 0.1560 -0.6985 -0.6985
vn 0.5774 -0.5774 -0.5774
vt 0.375000 0.000000
vt 0.375000 1.000000
vt 0.125000 0.750000
vt 0.625000 1.000000
vt 0.875000 0.750000
vt 0.625000 0.000000
vt 0.375000 0.250000
vt 0.125000 0.500000
vt 0.625000 0.250000
vt 0.875000 0.500000
vt 0.375000 0.750000
vt 0.625000 0.750000
vt 0.375000 0.500000
vt 0.625000 0.500000
vt 0.375000 0.125000
vt 0.125000 0.625000
vt 0.500000 0.000000
vt 0.500000 1.000000
vt 0.875000 0.625000
vt 0.625000 0.125000
vt 0.500000 0.250000
vt 0.375000 0.375000
vt 0.250000 0.500000
vt 0.750000 0.500000
vt 0.625000 0.375000
vt 0.500000 0.500000
vt 0.375000 0.625000
vt 0.625000 0.625000
vt 0.500000 0.750000
vt 0.375000 0.875000
vt 0.250000 0.750000
vt 0.750000 0.750000
vt 0.625000 0.875000
vt 0.750000 0.625000
vt 0.250000 0.625000
vt 0.500000 0.875000
vt 0.500000 0.625000
vt 0.500000 0.375000
vt 0.500000 0.125000
vt 0.375000 0.062500
vt 0.125000 0.687500
vt 0.562500 0.000000
vt 0.562500 1.000000
vt 0.875000 0.562500
vt 0.625000 0.187500
vt 0.437500 0.250000
vt 0.375000 0.312500
vt 0.187500 0.500000
vt 0.687500 0.500000
vt 0.625000 0.437500
vt 0.437500 0.500000
vt 0.375000 0.562500
vt 0.625000 0.687500
vt 0.437500 0.750000
vt 0.375000 0.812500
vt 0.312500 0.750000
vt 0.812500 0.750000
vt 0.625000 0.937500
vt 0.375000 0.187500
vt 0.125000 0.562500
vt 0.437500 0.000000
vt 0.437500 1.000000
vt 0.625000 0.062500
vt 0.875000 0.687500
vt 0.562500 0.250000
vt 0.375000 0.437500
vt 0.312500 0.500000
vt 0.625000 0.312500
vt 0.812500 0.500000
vt 0.562500 0.500000
vt 0.375000 0.687500
vt 0.625000 0.562500
vt 0.562500 0.750000
vt 0.375000 0.937500
vt 0.187500 0.750000
vt 0.625000 0.812500
vt 0.687500 0.750000
vt 0.750000 0.687500
vt 0.750000 0.562500
vt 0.687500 0.625000
vt 0.812500 0.625000
vt 0.250000 0.687500
vt 0.250000 0.562500
vt 0.187500 0.625000
vt 0.312500 0.625000
vt 0.500000 0.937500
vt 0.500000 0.812500
vt 0.437500 0.875000
vt 0.562500 0.875000
vt 0.500000 0.687500
vt 0.500000 0.562500
vt 0.437500 0.625000
vt 0.562500 0.625000
vt 0.500000 0.437500
vt 0.500000 0.312500
vt 0.437500 0.375000
vt 0.562500 0.375000
vt 0.500000 0.187500
vt 0.500000 0.062500
vt 0.437500 0.125000
vt 0.562500 0.125000
vt 0.562500 0.062500
vt 0.437500 0.062500
vt 0.437500 0.187500
vt 0.562500 0.312500
vt 0.437500 0.312500
vt 0.437500 0.437500
vt 0.562500 0.562500
vt 0.437500 0.562500
vt 0.437500 0.687500
vt 0.562500 0.812500
vt 0.437500 0.812500
vt 0.437500 0.937500
vt 0.312500 0.562500
vt 0.187500 0.562500
vt 0.187500 0.687500
vt 0.812500 0.562500
vt 0.687500 0.562500
vt 0.687500 0.687500
vt 0.812500 0.687500
vt 0.312500 0.687500
vt 0.562500 0.937500
vt 0.562500 0.687500
vt 0.562500 0.437500
vt 0.562500 0.187500
s 1
f 98/125/1 29/45/2 4/9/3 42/65/4
f 97/124/5 32/50/6 8/14/7 45/70/8
f 96/123/9 35/53/10 6/12/11 48/73/12
f 95/122/13 38/58/14 2/4/15 28/43/16
f 94/121/17 46/71/18 5/11/19 37/56/20
f 93/120/21 41/64/22 2/5/15 38/57/14
f 92/119/23 51/78/24 20/32/25 50/77/26
f 91/118/27 52/79/28 21/34/29 53/80/30
f 90/117/31 29/44/2 11/19/32 54/81/33
f 89/116/34 55/82/35 19/31/36 49/75/37
f 88/115/38 56/83/39 22/35/40 57/84/41
f 87/114/42 34/52/43 16/27/44 58/85/45
f 86/113/46 59/86/47 10/18/48 40/62/49
f 85/112/50 60/87/51 23/36/52 61/88/53
f 84/111/54 50/76/26 20/33/25 62/89/55
f 83/110/56 63/90/57 18/29/58 36/54/59
f 82/109/60 64/91/61 24/37/62 65/92/63
f 81/108/64 47/72/65 17/28/66 66/93/67
f 80/107/68 67/94/69 15/26/70 33/51/71
f 79/106/72 68/95/73 25/38/74 69/96/75
f 78/105/76 44/68/77 14/25/78 70/97/79
f 77/104/80 71/98/81 12/21/82 30/46/83
f 76/103/84 72/99/85 26/39/86 73/100/87
f 75/102/88 41/63/22 11/20/32 74/101/89
f 72/99/85 75/102/88 74/101/89 26/39/86
f 10/17/48 28/42/16 75/102/88 72/99/85
f 28/42/16 2/6/15 41/63/22 75/102/88
f 27/40/90 76/103/84 73/100/87 9/15/91
f 1/1/92 40/61/49 76/103/84 27/40/90
f 40/61/49 10/17/48 72/99/85 76/103/84
f 39/59/93 77/104/80 30/46/83 3/7/94
f 9/15/91 73/100/87 77/104/80 39/59/93
f 73/100/87 26/39/86 71/98/81 77/104/80
f 68/95/73 78/105/76 70/97/79 25/38/74
f 12/21/82 42/65/4 78/105/76 68/95/73
f 42/65/4 4/9/3 44/68/77 78/105/76
f 31/47/95 79/106/72 69/96/75 13/22/96
f 3/7/94 30/46/83 79/106/72 31/47/95
f 30/46/83 12/21/82 68/95/73 79/106/72
f 43/66/97 80/107/68 33/51/71 7/13/98
f 13/22/96 69/96/75 80/107/68 43/66/97
f 69/96/75 25/38/74 67/94/69 80/107/68
f 64/91/61 81/108/64 66/93/67 24/37/62
f 15/26/70 45/70/8 81/108/64 64/91/61
f 45/70/8 8/14/7 47/72/65 81/108/64
f 34/52/43 82/109/60 65/92/63 16/27/44
f 7/13/98 33/51/71 82/109/60 34/52/43
f 33/51/71 15/26/70 64/91/61 82/109/60
f 46/71/18 83/110/56 36/54/59 5/11/19
f 16/27/44 65/92/63 83/110/56 46/71/18
f 65/92/63 24/37/62 63/90/57 83/110/56
f 60/87/51 84/111/54 62/89/55 23/36/52
f 18/29/58 48/73/12 84/111/54 60/87/51
f 48/73/12 6/12/11 50/76/26 84/111/54
f 37/55/20 85/112/50 61/88/53 19/30/36
f 5/11/19 36/54/59 85/112/50 37/55/20
f 36/54/59 18/29/58 60/87/51 85/112/50
f 49/74/37 86/113/46 40/62/49 1/2/92
f 19/30/36 61/88/53 86/113/46 49/74/37
f 61/88/53 23/36/52 59/86/47 86/113/46
f 56/83/39 87/114/42 58/85/45 22/35/40
f 13/23/96 43/67/97 87/114/42 56/83/39
f 43/67/97 7/13/98 34/52/43 87/114/42
f 39/60/93 88/115/38 57/84/41 9/16/91
f 3/8/94 31/48/95 88/115/38 39/60/93
f 31/48/95 13/23/96 56/83/39 88/115/38
f 27/41/90 89/116/34 49/75/37 1/3/92
f 9/16/91 57/84/41 89/116/34 27/41/90
f 57/84/41 22/35/40 55/82/35 89/116/34
f 52/79/28 90/117/31 54/81/33 21/34/29
f 14/24/78 44/69/77 90/117/31 52/79/28
f 44/69/77 4/10/3 29/44/2 90/117/31
f 47/72/65 91/118/27 53/80/30 17/28/66
f 8/14/7 32/49/6 91/118/27 47/72/65
f 32/49/6 14/24/78 52/79/28 91/118/27
f 35/53/10 92/119/23 50/77/26 6/12/11
f 17/28/66 53/80/30 92/119/23 35/53/10
f 53/80/30 21/34/29 51/78/24 92/119/23
f 51/78/24 93/120/21 38/57/14 20/32/25
f 21/34/29 54/81/33 93/120/21 51/78/24
f 54/81/33 11/19/32 41/64/22 93/120/21
f 55/82/35 94/121/17 37/56/20 19/31/36
f 22/35/40 58/85/45 94/121/17 55/82/35
f 58/85/45 16/27/44 46/71/18 94/121/17
f 59/86/47 95/122/13 28/43/16 10/18/48
f 23/36/52 62/89/55 95/122/13 59/86/47
f 62/89/55 20/33/25 38/58/14 95/122/13
f 63/90/57 96/123/9 48/73/12 18/29/58
f 24/37/62 66/93/67 96/123/9 63/90/57
f 66/93/67 17/28/66 35/53/10 96/123/9
f 67/94/69 97/124/5 45/70/8 15/26/70
f 25/38/74 70/97/79 97/124/5 67/94/69
f 70/97/79 14/25/78 32/50/6 97/124/5
f 71/98/81 98/125/1 42/65/4 12/21/82
f 26/39/86 74/101/89 98/125/1 71/98/81
f 74/101/89 11/20/32 29/45/2 98/125/1
