# Blender 3.3.1
# www.blender.org
o Cube
v 9.000000 0.000000 1.000000
v 9.000000 2.000000 1.000000
v 9.000000 2.000000 0.000000
v 9.000000 2.000000 -1.000000
v 11.000000 0.000000 1.000000
v 11.000000 2.000000 1.000000
v 11.000000 0.000000 -1.000000
v 11.000000 2.000000 -1.000000
v 11.000000 0.000000 0.000000
v 11.000000 2.000000 0.000000
v 11.000000 2.000000 -0.500000
v 9.000000 2.000000 -0.500000
v 11.000000 0.000000 -0.500000
v 11.000000 0.000000 0.500000
v 9.000000 2.000000 0.500000
v 11.000000 2.000000 0.500000
v 10.000000 2.000000 -1.000000
v 10.000000 0.000000 1.000000
v 10.000000 2.000000 1.000000
v 10.000000 2.000000 0.000000
v 10.000000 2.000000 -0.500000
v 10.000000 2.000000 0.500000
v 10.500000 2.000000 -1.000000
v 10.500000 0.000000 1.000000
v 10.500000 2.000000 0.000000
v 10.500000 2.000000 -0.500000
v 10.500000 2.000000 0.500000
v 10.500000 2.000000 1.000000
v 9.500000 2.000000 1.000000
v 9.500000 2.000000 -1.000000
v 9.500000 0.000000 1.000000
v 9.500000 2.000000 0.000000
v 9.500000 2.000000 -0.500000
v 9.500000 2.000000 0.500000
vn -0.0000 1.0000 -0.0000
vn 1.0000 -0.0000 -0.0000
vn -0.0000 -0.0000 1.0000
vt 0.458017 0.815890
vt 0.460826 0.815890
vt 0.055039 0.937626
vt 0.197064 0.828297
vt 0.181847 0.914527
vt 0.458017 0.815890
vt 0.458017 0.813080
vt 0.460826 0.815890
vt 0.460826 0.813080
vt 0.458017 0.815890
vt 0.458017 0.813080
vt 0.460826 0.813080
vt 0.458017 0.813080
vt 0.458017 0.815890
vt 0.458017 0.813080
vt 0.460826 0.815890
vt 0.460826 0.813080
vt 0.458017 0.815890
vt 0.458017 0.813080
vt 0.460826 0.813080
vt 0.460826 0.815890
vt 0.458017 0.815890
vt 0.458017 0.813080
vt 0.181847 0.917337
vt 0.055039 0.934817
vt 0.458017 0.813080
vt 0.458017 0.815890
vt 0.458017 0.813080
vt 0.458017 0.815890
vt 0.460826 0.813080
vt 0.197064 0.831107
vt 0.460826 0.813080
vt 0.460826 0.815890
vt 0.458017 0.813080
vt 0.458017 0.815890
vt 0.197064 0.828297
vt 0.052229 0.934817
vt 0.458017 0.815890
vt 0.458017 0.813080
vt 0.460826 0.815890
vt 0.458017 0.815890
vt 0.460826 0.813080
vt 0.197064 0.828297
vt 0.197064 0.831107
vt 0.194255 0.828297
vt 0.052229 0.937626
vt 0.197064 0.828297
vt 0.197064 0.831107
vt 0.052229 0.934817
vt 0.052229 0.937626
vt 0.197064 0.831107
vt 0.460826 0.813080
vt 0.194255 0.831107
vt 0.458017 0.813080
vt 0.194255 0.828297
vt 0.460826 0.813080
vt 0.458017 0.813080
vt 0.458017 0.815890
vt 0.194255 0.828297
vt 0.194255 0.831107
vt 0.460826 0.815890
vt 0.460826 0.813080
vt 0.194255 0.828297
vt 0.194255 0.831107
vt 0.460826 0.815890
vt 0.460826 0.813080
vt 0.194255 0.831107
vt 0.458017 0.813080
vt 0.460826 0.813080
vt 0.460826 0.815890
vt 0.458017 0.815890
vt 0.460826 0.813080
vt 0.460826 0.815890
vt 0.460826 0.813080
vt 0.458017 0.815890
vt 0.460826 0.815890
vt 0.179038 0.914527
vt 0.055039 0.934817
vt 0.458017 0.813080
vt 0.458017 0.815890
vt 0.052229 0.937626
vt 0.194255 0.828297
vt 0.197064 0.828297
vt 0.055039 0.937626
vt 0.179038 0.917337
vt 0.052229 0.934817
vt 0.055039 0.934817
vt 0.055039 0.937626
vt 0.458017 0.813080
vt 0.194255 0.831107
vt 0.197064 0.831107
vt 0.460826 0.813080
s 0
f 30/77/1 4/5/1 12/24/1 33/85/1
f 13/26/2 11/20/2 10/16/2 9/14/2
f 14/28/2 16/32/2 6/8/2 5/6/2
f 31/79/3 29/74/3 2/2/3 1/1/3
f 33/86/1 12/25/1 3/3/1 32/81/1
f 34/89/1 15/30/1 2/2/1 29/75/1
f 7/11/2 8/12/2 11/21/2 13/27/2
f 32/82/1 3/4/1 15/31/1 34/90/1
f 9/15/2 10/17/2 16/33/2 14/29/2
f 25/59/1 20/43/1 22/51/1 27/67/1
f 27/68/1 22/52/1 19/40/1 28/71/1
f 26/63/1 21/47/1 20/44/1 25/60/1
f 24/57/3 28/72/3 19/40/3 18/38/3
f 23/55/1 17/36/1 21/48/1 26/64/1
f 8/13/1 23/56/1 26/65/1 11/22/1
f 5/7/3 6/9/3 28/73/3 24/58/3
f 11/23/1 26/66/1 25/61/1 10/18/1
f 16/34/1 27/69/1 28/73/1 6/10/1
f 10/19/1 25/62/1 27/70/1 16/35/1
f 20/45/1 32/83/1 34/91/1 22/53/1
f 22/54/1 34/92/1 29/76/1 19/41/1
f 21/49/1 33/87/1 32/84/1 20/46/1
f 18/39/3 19/42/3 29/76/3 31/80/3
f 17/37/1 30/78/1 33/88/1 21/50/1
