# Blender 3.3.1
# www.blender.org
o Plane.002
v -3.500000 2.000000 3.000000
v -3.000000 0.000000 1.600000
v -3.500000 0.000000 1.500000
v -3.000000 0.000000 1.000000
v -3.600000 0.000000 1.000000
v -3.300000 0.000000 1.000000
v -3.300000 0.000000 1.600000
v -5.000000 2.000000 2.000000
v -5.000000 2.000000 3.000000
v -4.000000 2.000000 3.000000
v -3.000000 2.000000 3.000000
v -5.000000 2.000000 1.000000
v -3.000000 2.000000 2.000000
v -3.900000 2.000000 1.900000
v -4.000000 2.000000 1.000000
v -3.500000 2.000000 2.000000
v -3.300000 0.000000 1.300000
v -3.000000 0.000000 1.300000
v -3.600000 0.000000 1.300000
v -5.000000 2.000000 1.500000
v -4.000000 2.000000 1.500000
v -4.300000 2.000000 3.000000
v -4.300000 2.000000 2.000000
v -4.300000 2.000000 1.000000
v -4.300000 2.000000 1.500000
v -3.500000 2.000000 2.300000
v -5.000000 2.000000 2.300000
v -3.000000 2.000000 2.300000
v -4.000000 2.000000 2.300000
v -4.200000 2.000000 2.170000
vn 0.3077 0.2308 -0.9231
vn -0.0000 1.0000 -0.0000
vn -0.0000 0.1961 -0.9806
vn 0.9806 0.1961 -0.0000
vn 0.9231 0.2308 -0.3077
vt 0.183845 0.925156
vt 0.178299 0.925156
vt 0.057187 0.921119
vt 0.062733 0.921119
vt 0.062733 0.921119
vt 0.057187 0.921119
vt 0.183845 0.930702
vt 0.057187 0.926665
vt 0.062733 0.921119
vt 0.178299 0.930702
vt 0.062733 0.926665
vt 0.062733 0.921119
vt 0.057187 0.921119
vt 0.178299 0.925156
vt 0.178299 0.930702
vt 0.178299 0.925156
vt 0.178299 0.925156
vt 0.183845 0.925156
vt 0.183845 0.925156
vt 0.178299 0.930702
vt 0.057187 0.926665
vt 0.062733 0.926665
vt 0.062733 0.926665
vt 0.057187 0.926665
vt 0.062733 0.921119
vt 0.062733 0.926665
vt 0.057187 0.926665
vt 0.062733 0.926665
vt 0.178299 0.925156
vt 0.062733 0.921119
vt 0.062733 0.926665
vt 0.057187 0.926665
vt 0.183845 0.925156
vt 0.062733 0.926665
vt 0.057187 0.921119
vt 0.062733 0.921119
vt 0.057187 0.926665
vt 0.178299 0.930702
vt 0.178299 0.925156
vt 0.062733 0.921119
vt 0.057187 0.926665
vt 0.062733 0.926665
vt 0.183845 0.925156
vt 0.178299 0.925156
vt 0.057187 0.926665
vt 0.057187 0.921119
vt 0.183845 0.925156
vt 0.183845 0.930702
vt 0.057187 0.926665
vt 0.183845 0.930702
vt 0.057187 0.921119
vt 0.057187 0.926665
vt 0.183845 0.930702
vt 0.183845 0.925156
vt 0.057187 0.921119
vt 0.062733 0.921119
vt 0.183845 0.930702
vt 0.178299 0.930702
vt 0.178299 0.925156
vt 0.178299 0.930702
vt 0.062733 0.921119
vt 0.183845 0.930702
vt 0.062733 0.921119
vt 0.057187 0.921119
vt 0.178299 0.930702
vt 0.183845 0.930702
vt 0.057187 0.921119
vt 0.183845 0.925156
vt 0.183845 0.930702
vt 0.178299 0.930702
s 0
f 7/13/1 3/5/1 14/23/1 16/27/1
f 17/29/2 18/33/2 4/7/2 6/10/2
f 2/3/3 7/12/3 16/28/3 13/21/3
f 30/67/2 29/63/2 14/23/2 23/45/2
f 26/55/2 28/61/2 13/22/2 16/27/2
f 25/51/2 21/40/2 15/26/2 24/49/2
f 29/64/2 26/56/2 16/28/2 14/24/2
f 19/35/2 17/30/2 6/11/2 5/8/2
f 19/35/4 5/9/4 15/26/4 21/41/4
f 3/6/5 19/36/5 21/42/5 14/24/5
f 3/6/2 7/12/2 17/31/2 19/37/2
f 23/46/2 14/25/2 21/42/2 25/52/2
f 7/13/2 2/4/2 18/34/2 17/32/2
f 8/14/2 23/47/2 25/53/2 20/38/2
f 20/39/2 25/54/2 24/50/2 12/20/2
f 27/59/2 30/68/2 23/48/2 8/15/2
f 9/16/2 22/43/2 30/69/2 27/60/2
f 10/17/2 1/1/2 26/57/2 29/65/2
f 1/2/2 11/19/2 28/62/2 26/58/2
f 22/44/2 10/18/2 29/66/2 30/70/2
