# Blender 3.3.1
# www.blender.org
o Plane.040
v 10.999999 0.000000 1.000001
v 11.000000 0.000000 1.600001
v 11.599999 0.000000 1.000000
v 11.599999 0.000000 1.600000
v 12.000001 2.000000 3.000000
v 13.000001 2.000000 2.999999
v 13.000000 2.000000 1.999999
v 12.999999 2.000000 0.999999
v 11.000000 2.000000 2.000001
v 11.000001 2.000000 3.000001
v 12.000000 2.000000 2.000000
v 11.999999 2.000000 1.000000
v 11.000000 2.000000 2.300001
v 13.000000 2.000000 2.299999
v 12.000000 2.000000 2.300000
v 12.300001 2.000000 3.000000
v 12.299999 2.000000 1.000000
v 12.365152 2.000000 2.000000
v 12.300000 2.000000 2.300000
v 11.000001 2.000000 2.650001
v 12.000001 2.000000 2.650000
v 13.000000 2.000000 2.649999
v 12.134985 2.000000 2.650000
v 12.650000 2.000000 3.000000
v 12.599999 2.000000 1.000000
v 12.665153 2.000000 2.000000
v 12.600000 2.000000 2.299999
v 12.434985 2.000000 2.650000
v 11.000001 2.000000 2.825001
v 12.000001 2.000000 2.825000
v 12.300001 2.000000 2.825000
v 13.000001 2.000000 2.824999
v 12.600000 2.000000 2.825000
v 12.825000 2.000000 3.000000
v 12.799999 2.000000 0.999999
v 12.865152 2.000000 1.999999
v 12.800000 2.000000 2.299999
v 12.634985 2.000000 2.649999
v 12.800000 2.000000 2.824999
v 10.999999 0.000000 1.300001
v 11.599999 0.000000 1.300000
v 13.000000 2.000000 1.499999
v 12.000000 2.000000 1.500000
v 12.213866 2.000000 1.500000
v 12.513866 2.000000 1.500000
v 12.713866 2.000000 1.499999
vn -0.0000 1.0000 -0.0000
vn -0.0000 0.1961 -0.9806
vn -0.9806 0.1961 -0.0000
vt 0.458315 0.838740
vt 0.458315 0.830809
vt 0.450383 0.838740
vt 0.458315 0.830809
vt 0.450383 0.830809
vt 0.458315 0.830809
vt 0.450383 0.830809
vt 0.444470 0.819053
vt 0.439079 0.821632
vt 0.198320 0.932522
vt 0.191769 0.935155
vt 0.191969 0.935155
vt 0.191769 0.935155
vt 0.458315 0.838740
vt 0.439079 0.821749
vt 0.458315 0.830809
vt 0.458315 0.838740
vt 0.450383 0.838740
vt 0.458315 0.838740
vt 0.450383 0.838740
vt 0.450383 0.838740
vt 0.439495 0.820104
vt 0.198300 0.932600
vt 0.191969 0.935155
vt 0.450383 0.830809
vt 0.450383 0.838740
vt 0.444886 0.817409
vt 0.439495 0.819987
vt 0.444470 0.818936
vt 0.190596 0.829457
vt 0.458315 0.830809
vt 0.194532 0.829679
vt 0.458315 0.830809
vt 0.194462 0.829679
vt 0.450383 0.830809
vt 0.450383 0.830809
vt 0.444886 0.817292
vt 0.190603 0.829430
vt 0.194462 0.829679
vt 0.439378 0.820104
vt 0.437402 0.821823
vt 0.444769 0.817409
vt 0.439378 0.819987
vt 0.437402 0.821706
vt 0.442793 0.819128
vt 0.198400 0.932519
vt 0.444769 0.817292
vt 0.190568 0.829458
vt 0.442793 0.819011
vt 0.051222 0.942661
vt 0.190596 0.829455
vt 0.194532 0.829609
vt 0.044671 0.945099
vt 0.044671 0.945099
vt 0.044871 0.945099
vt 0.194462 0.829609
vt 0.190603 0.829428
vt 0.194462 0.829609
vt 0.044871 0.945099
vt 0.051203 0.942740
vt 0.190568 0.829456
vt 0.051208 0.942740
vt 0.437344 0.821823
vt 0.439138 0.821749
vt 0.437344 0.821706
vt 0.442735 0.819128
vt 0.444529 0.819053
vt 0.439138 0.821632
vt 0.442735 0.819011
vt 0.444529 0.818936
vt 0.190597 0.829457
vt 0.198403 0.932519
vt 0.051220 0.942661
vt 0.190597 0.829455
vt 0.051222 0.942664
vt 0.198320 0.932520
vt 0.044671 0.945199
vt 0.191769 0.935055
vt 0.191869 0.935055
vt 0.044771 0.945199
vt 0.044871 0.945199
vt 0.051203 0.942742
vt 0.198300 0.932598
vt 0.191969 0.935055
vt 0.051255 0.942702
vt 0.198353 0.932557
vt 0.051262 0.942662
vt 0.198360 0.932518
vt 0.454349 0.838740
vt 0.454349 0.830809
vt 0.191869 0.935155
vt 0.454349 0.838740
vt 0.194497 0.829679
vt 0.454349 0.830809
vt 0.044771 0.945099
vt 0.194497 0.829609
vt 0.191819 0.935055
vt 0.044721 0.945199
s 0
f 41/90/1 3/4/1 1/1/1 40/89/1
f 4/7/2 2/2/2 9/14/2 11/18/2
f 15/25/1 11/16/1 9/14/1 13/21/1
f 19/36/1 18/33/1 11/17/1 15/26/1
f 44/94/1 17/31/1 12/19/1 43/92/1
f 41/90/3 4/6/3 11/17/3 43/92/3
f 23/47/1 19/37/1 15/27/1 21/42/1
f 21/43/1 15/28/1 13/22/1 20/40/1
f 28/61/1 27/57/1 19/38/1 23/48/1
f 45/96/1 25/52/1 17/32/1 44/93/1
f 27/58/1 26/56/1 18/34/1 19/39/1
f 33/74/1 28/61/1 23/48/1 31/71/1
f 30/65/1 21/44/1 20/41/1 29/63/1
f 31/69/1 23/49/1 21/45/1 30/66/1
f 39/87/1 38/85/1 28/62/1 33/73/1
f 37/81/1 36/80/1 26/54/1 27/59/1
f 46/98/1 35/77/1 25/53/1 45/95/1
f 38/85/1 37/82/1 27/60/1 28/62/1
f 34/75/1 39/87/1 33/73/1 24/50/1
f 16/29/1 31/70/1 30/67/1 5/8/1
f 5/9/1 30/68/1 29/64/1 10/15/1
f 24/51/1 33/74/1 31/71/1 16/30/1
f 6/10/1 32/72/1 39/88/1 34/76/1
f 22/46/1 14/23/1 37/83/1 38/86/1
f 42/91/1 8/13/1 35/78/1 46/97/1
f 14/24/1 7/11/1 36/79/1 37/84/1
f 32/72/1 22/46/1 38/86/1 39/88/1
f 7/12/1 42/91/1 46/97/1 36/79/1
f 36/80/1 46/98/1 45/95/1 26/55/1
f 26/56/1 45/96/1 44/93/1 18/34/1
f 3/5/3 41/90/3 43/92/3 12/20/3
f 18/35/1 44/94/1 43/92/1 11/18/1
f 4/7/1 41/90/1 40/89/1 2/3/1
