# Blender 3.3.1
# www.blender.org
o Plane.023
v -3.300000 0.000000 -9.000000
v -5.000000 0.000000 -9.000000
v -3.000000 0.000000 -9.000000
v -3.300000 0.000000 -8.400000
v -3.600000 0.000000 -9.000000
v -3.300000 0.000000 -7.000000
v -3.000000 0.000000 -7.000000
v -3.600000 0.000000 -7.000000
v -3.000000 0.000000 -8.400000
v -3.700000 0.000000 -8.300000
v -5.000000 0.000000 -8.400000
v -5.000000 0.500000 -7.000000
v -4.000000 0.500000 -7.000000
v -5.000000 0.500000 -8.000000
v -4.100000 0.500000 -7.900000
v -3.400000 0.000000 -8.600000
v -3.000000 0.000000 -8.700000
v -3.600000 0.000000 -8.700000
v -5.000000 0.000000 -8.700000
v -4.300000 0.000000 -9.000000
v -4.300000 0.000000 -8.400000
v -4.300000 0.500000 -7.000000
v -4.300000 0.500000 -8.000000
v -4.300000 0.000000 -8.700000
v -3.300000 0.000000 -7.900000
v -3.000000 0.000000 -7.900000
v -3.600000 0.000000 -7.900000
v -5.000000 0.500000 -7.700000
v -4.000000 0.500000 -7.700000
v -4.300000 0.500000 -7.700000
vn -0.0000 1.0000 -0.0000
vn -0.0000 0.6247 -0.7809
vn 0.6882 0.6882 -0.2294
vn 0.1827 0.6577 -0.7308
vn 0.7809 0.6247 -0.0000
vt 0.178299 0.930702
vt 0.183845 0.930702
vt 0.178299 0.930702
vt 0.183845 0.930702
vt 0.062733 0.921119
vt 0.178299 0.930702
vt 0.062733 0.926665
vt 0.178299 0.925156
vt 0.183845 0.930702
vt 0.178299 0.930702
vt 0.062733 0.921119
vt 0.178299 0.925156
vt 0.183845 0.925156
vt 0.057187 0.921119
vt 0.183845 0.930702
vt 0.183845 0.925156
vt 0.057187 0.926665
vt 0.062733 0.921119
vt 0.057187 0.921119
vt 0.062733 0.921119
vt 0.057187 0.921119
vt 0.188443 0.930229
vt 0.057187 0.926665
vt 0.062733 0.921119
vt 0.062733 0.926665
vt 0.056563 0.935775
vt 0.062733 0.926665
vt 0.057187 0.926665
vt 0.178299 0.925156
vt 0.062733 0.926665
vt 0.183845 0.925156
vt 0.178299 0.930702
vt 0.183845 0.925156
vt 0.183845 0.930702
vt 0.183845 0.925156
vt 0.057187 0.926665
vt 0.178299 0.925156
vt 0.062733 0.926665
vt 0.057187 0.926665
vt 0.178299 0.925156
vt 0.178299 0.930702
vt 0.183845 0.930702
vt 0.057187 0.921119
vt 0.062733 0.921119
vt 0.193989 0.930229
vt 0.057187 0.921119
vt 0.057187 0.926665
vt 0.062733 0.926665
vt 0.062108 0.935775
vt 0.178299 0.925156
vt 0.057187 0.926665
vt 0.062733 0.926665
vt 0.183845 0.925156
vt 0.178299 0.925156
vt 0.062733 0.921119
vt 0.062733 0.926665
vt 0.178299 0.930702
vt 0.183845 0.925156
vt 0.183845 0.930702
vt 0.057187 0.921119
vt 0.057187 0.926665
vt 0.062733 0.921119
vt 0.056563 0.930229
vt 0.188443 0.935774
vt 0.062733 0.921119
vt 0.057187 0.926665
vt 0.062733 0.926665
vt 0.057187 0.921119
vt 0.062108 0.930229
vt 0.193989 0.935774
vt 0.057187 0.926665
s 0
f 16/29/1 17/33/1 3/4/1 1/1/1
f 24/50/1 18/35/1 5/9/1 20/41/1
f 10/19/1 4/5/1 16/30/1 18/36/1
f 18/37/1 16/31/1 1/2/1 5/10/1
f 25/54/1 26/58/1 9/15/1 4/6/1
f 30/68/1 29/65/1 15/27/1 23/47/1
f 21/43/2 11/20/2 14/25/2 23/47/2
f 27/60/3 10/18/3 15/27/3 29/66/3
f 27/60/1 25/55/1 4/7/1 10/17/1
f 21/43/1 10/18/1 18/38/1 24/51/1
f 4/8/1 9/16/1 17/34/1 16/32/1
f 11/21/1 21/44/1 24/52/1 19/39/1
f 10/19/4 21/44/4 23/48/4 15/28/4
f 28/63/1 30/69/1 23/49/1 14/26/1
f 19/40/1 24/53/1 20/42/1 2/3/1
f 12/22/1 22/45/1 30/70/1 28/64/1
f 8/14/1 6/11/1 25/56/1 27/61/1
f 8/14/5 27/62/5 29/67/5 13/23/5
f 22/46/1 13/24/1 29/67/1 30/71/1
f 6/12/1 7/13/1 26/59/1 25/57/1
