# Blender 3.3.1
# www.blender.org
mtllib cube.mtl
o Cube.001
v -10.956859 -10.956859 10.956859
v -10.956859 10.956859 10.956859
v -10.956859 -10.956859 -10.956859
v -10.956859 10.956859 -10.956859
v 10.956859 -10.956859 10.956859
v 10.956859 10.956859 10.956859
v 10.956859 -10.956859 -10.956859
v 10.956859 10.956859 -10.956859
v -12.217644 -12.217644 0.000000
v -12.217644 0.000000 12.217644
v -12.217644 12.217644 0.000000
v -12.217644 0.000000 -12.217644
v 0.000000 -12.217644 -12.217644
v 0.000000 12.217644 -12.217644
v 12.217644 0.000000 -12.217644
v 12.217644 -12.217644 0.000000
v 12.217644 12.217644 0.000000
v 12.217644 0.000000 12.217644
v 0.000000 -12.217644 12.217644
v 0.000000 12.217644 12.217644
v 0.000000 16.000000 0.000000
v 0.000000 -16.000000 0.000000
v 0.000000 0.000000 16.000000
v 16.000000 0.000000 0.000000
v 0.000000 0.000000 -16.000000
v -16.000000 0.000000 0.000000
v -11.876328 -11.876328 6.634732
v -11.876328 6.634732 11.876328
v -11.876328 11.876328 -6.634732
v -11.876328 -6.634732 -11.876328
v -6.634732 -11.876328 -11.876328
v 6.634732 11.876328 -11.876328
v 11.876328 -6.634732 -11.876328
v 11.876328 -11.876328 -6.634732
v 11.876328 11.876328 6.634732
v 11.876328 -6.634732 11.876328
v 6.634732 -11.876328 11.876328
v -6.634732 11.876328 11.876328
v -11.876328 -11.876328 -6.634732
v -11.876328 -6.634732 11.876328
v -11.876328 11.876328 6.634732
v -11.876328 6.634732 -11.876328
v 6.634732 -11.876328 -11.876328
v -6.634732 11.876328 -11.876328
v 11.876328 6.634732 -11.876328
v 11.876328 -11.876328 6.634732
v 11.876328 11.876328 -6.634732
v 11.876328 6.634732 11.876328
v -6.634732 -11.876328 11.876328
v 6.634732 11.876328 11.876328
v 0.000000 14.976049 6.976048
v 0.000000 14.976049 -6.976048
v 6.976048 14.976049 0.000000
v -6.976048 14.976049 0.000000
v 0.000000 -14.976049 6.976048
v 0.000000 -14.976049 -6.976048
v -6.976048 -14.976049 0.000000
v 6.976048 -14.976049 0.000000
v -6.976048 0.000000 14.976049
v 6.976048 0.000000 14.976049
v 0.000000 -6.976048 14.976049
v 0.000000 6.976048 14.976049
v 14.976049 0.000000 6.976048
v 14.976049 0.000000 -6.976048
v 14.976049 -6.976048 0.000000
v 14.976049 6.976048 0.000000
v 6.976048 0.000000 -14.976049
v -6.976048 0.000000 -14.976049
v 0.000000 -6.976048 -14.976049
v 0.000000 6.976048 -14.976049
v -14.976049 0.000000 -6.976048
v -14.976049 0.000000 6.976048
v -14.976049 -6.976048 0.000000
v -14.976049 6.976048 0.000000
v -13.952097 6.976048 6.976048
v -13.952097 -6.976048 6.976048
v -13.952097 -6.976048 -6.976048
v -6.976048 6.976048 -13.952097
v -6.976048 -6.976048 -13.952097
v 6.976048 -6.976048 -13.952097
v 13.952097 6.976048 -6.976048
v 13.952097 -6.976048 -6.976048
v 13.952097 -6.976048 6.976048
v 6.976048 6.976048 13.952097
v 6.976048 -6.976048 13.952097
v -6.976048 -6.976048 13.952097
v 6.976048 -13.952097 -6.976048
v -6.976048 -13.952097 -6.976048
v -6.976048 -13.952097 6.976048
v -6.976048 13.952097 -6.976048
v 6.976048 13.952097 -6.976048
v 6.976048 13.952097 6.976048
v -6.976048 13.952097 6.976048
v 6.976048 -13.952097 6.976048
v -6.976048 6.976048 13.952097
v 13.952097 6.976048 6.976048
v 6.976048 6.976048 -13.952097
v -13.952097 6.976048 -6.976048
vn -0.9318 0.2567 -0.2567
vn -0.6893 0.6893 -0.2232
vn -0.5774 0.5774 -0.5774
vn -0.6893 0.2232 -0.6893
vn 0.2567 0.2567 -0.9318
vn 0.2232 0.6893 -0.6893
vn 0.5774 0.5774 -0.5774
vn 0.6893 0.2232 -0.6893
vn 0.9318 0.2567 0.2567
vn 0.6893 0.6893 0.2232
vn 0.5774 0.5774 0.5774
vn 0.6893 0.2232 0.6893
vn -0.2567 0.2567 0.9318
vn -0.2232 0.6893 0.6893
vn -0.5774 0.5774 0.5774
vn -0.6893 0.2232 0.6893
vn 0.2567 -0.9318 0.2567
vn 0.6893 -0.6893 0.2232
vn 0.5774 -0.5774 0.5774
vn 0.2232 -0.6893 0.6893
vn -0.2567 0.9318 0.2567
vn -0.6893 0.6893 0.2232
vn 0.2567 0.9318 0.2567
vn -0.0000 0.9574 0.2887
vn -0.0000 0.7071 0.7071
vn 0.2232 0.6893 0.6893
vn 0.2567 0.9318 -0.2567
vn -0.0000 0.9574 -0.2887
vn -0.0000 1.0000 -0.0000
vn 0.2887 0.9574 -0.0000
vn -0.2567 0.9318 -0.2567
vn -0.7071 0.7071 -0.0000
vn -0.2887 0.9574 -0.0000
vn -0.2567 -0.9318 0.2567
vn -0.0000 -0.9574 0.2887
vn -0.0000 -0.7071 0.7071
vn -0.2232 -0.6893 0.6893
vn -0.2567 -0.9318 -0.2567
vn -0.0000 -0.9574 -0.2887
vn -0.0000 -1.0000 -0.0000
vn -0.2887 -0.9574 -0.0000
vn 0.2567 -0.9318 -0.2567
vn 0.6893 -0.6893 -0.2232
vn 0.7071 -0.7071 -0.0000
vn 0.2887 -0.9574 -0.0000
vn -0.2567 -0.2567 0.9318
vn -0.2887 -0.0000 0.9574
vn -0.7071 -0.0000 0.7071
vn -0.6893 -0.2232 0.6893
vn 0.2567 -0.2567 0.9318
vn 0.2887 -0.0000 0.9574
vn -0.0000 -0.0000 1.0000
vn -0.0000 -0.2887 0.9574
vn 0.2567 0.2567 0.9318
vn -0.0000 0.2887 0.9574
vn 0.9318 -0.2567 0.2567
vn 0.9574 -0.0000 0.2887
vn 0.7071 -0.0000 0.7071
vn 0.6893 -0.2232 0.6893
vn 0.9318 -0.2567 -0.2567
vn 0.9574 -0.0000 -0.2887
vn 1.0000 -0.0000 -0.0000
vn 0.9574 -0.2887 -0.0000
vn 0.9318 0.2567 -0.2567
vn 0.6893 0.6893 -0.2232
vn 0.7071 0.7071 -0.0000
vn 0.9574 0.2887 -0.0000
vn 0.2567 -0.2567 -0.9318
vn 0.2887 -0.0000 -0.9574
vn 0.7071 -0.0000 -0.7071
vn 0.6893 -0.2232 -0.6893
vn -0.2567 -0.2567 -0.9318
vn -0.2887 -0.0000 -0.9574
vn -0.0000 -0.0000 -1.0000
vn -0.0000 -0.2887 -0.9574
vn -0.2567 0.2567 -0.9318
vn -0.2232 0.6893 -0.6893
vn -0.0000 0.7071 -0.7071
vn -0.0000 0.2887 -0.9574
vn -0.9318 -0.2567 -0.2567
vn -0.9574 -0.0000 -0.2887
vn -0.7071 -0.0000 -0.7071
vn -0.6893 -0.2232 -0.6893
vn -0.9318 -0.2567 0.2567
vn -0.9574 -0.0000 0.2887
vn -1.0000 -0.0000 -0.0000
vn -0.9574 -0.2887 -0.0000
vn -0.9318 0.2567 0.2567
vn -0.9574 0.2887 -0.0000
vn -0.6893 -0.6893 0.2232
vn -0.7071 -0.7071 -0.0000
vn -0.5774 -0.5774 0.5774
vn -0.6893 -0.6893 -0.2232
vn -0.5774 -0.5774 -0.5774
vn -0.2232 -0.6893 -0.6893
vn -0.0000 -0.7071 -0.7071
vn 0.2232 -0.6893 -0.6893
vn 0.5774 -0.5774 -0.5774
vt 0.250000 0.000000
vt 0.500000 1.000000
vt 0.750000 1.000000
vt 1.000000 1.000000
vt 0.500000 0.000000
vt 0.250000 1.000000
vt 0.000000 0.000000
vt 0.500000 0.000000
vt 0.500000 1.000000
vt 0.250000 0.000000
vt 1.000000 0.000000
vt 0.750000 1.000000
vt 0.250000 1.000000
vt 0.500000 0.000000
vt 0.500000 1.000000
vt 0.750000 0.000000
vt 0.750000 1.000000
vt 0.000000 1.000000
vt 0.250000 0.000000
vt 0.750000 0.000000
vt 0.250000 1.000000
vt 0.500000 0.000000
vt 0.750000 0.000000
vt 0.250000 0.500000
vt 0.500000 0.500000
vt 0.375000 0.000000
vt 0.625000 1.000000
vt 1.000000 0.500000
vt 0.500000 0.500000
vt 0.125000 0.000000
vt 0.375000 1.000000
vt 0.000000 0.500000
vt 0.625000 0.000000
vt 0.875000 0.000000
vt 0.250000 0.500000
vt 0.375000 0.000000
vt 0.125000 1.000000
vt 0.250000 0.500000
vt 0.750000 0.500000
vt 0.750000 0.500000
vt 0.500000 0.500000
vt 0.625000 0.000000
vt 0.375000 1.000000
vt 0.500000 0.500000
vt 0.625000 1.000000
vt 0.875000 1.000000
vt 0.750000 0.500000
vt 0.875000 0.500000
vt 0.625000 0.500000
vt 0.625000 0.500000
vt 0.375000 0.500000
vt 0.125000 0.500000
vt 0.375000 0.500000
vt 0.250000 0.250000
vt 0.500000 0.750000
vt 0.437500 0.000000
vt 0.687500 1.000000
vt 1.000000 0.250000
vt 0.500000 0.750000
vt 0.312500 1.000000
vt 0.062500 0.000000
vt 0.000000 0.250000
vt 0.562500 0.000000
vt 0.812500 0.000000
vt 0.250000 0.750000
vt 0.062500 1.000000
vt 0.312500 0.000000
vt 0.250000 0.250000
vt 0.750000 0.250000
vt 0.750000 0.750000
vt 0.500000 0.750000
vt 0.312500 1.000000
vt 0.562500 0.000000
vt 0.500000 0.250000
vt 0.687500 1.000000
vt 0.937500 1.000000
vt 0.750000 0.750000
vt 0.250000 0.750000
vt 0.500000 0.250000
vt 0.312500 0.000000
vt 0.562500 1.000000
vt 0.500000 0.250000
vt 1.000000 0.750000
vt 0.187500 0.000000
vt 0.437500 1.000000
vt 0.000000 0.750000
vt 0.687500 0.000000
vt 0.250000 0.250000
vt 0.937500 0.000000
vt 0.437500 0.000000
vt 0.187500 1.000000
vt 0.250000 0.750000
vt 0.750000 0.750000
vt 0.500000 0.250000
vt 0.750000 0.250000
vt 0.687500 0.000000
vt 0.437500 1.000000
vt 0.500000 0.750000
vt 0.562500 1.000000
vt 0.750000 0.250000
vt 0.812500 1.000000
vt 0.875000 0.750000
vt 0.875000 0.250000
vt 0.812500 0.500000
vt 0.937500 0.500000
vt 0.625000 0.750000
vt 0.625000 0.250000
vt 0.562500 0.500000
vt 0.687500 0.500000
vt 0.625000 0.750000
vt 0.625000 0.250000
vt 0.562500 0.500000
vt 0.687500 0.500000
vt 0.375000 0.750000
vt 0.375000 0.250000
vt 0.312500 0.500000
vt 0.437500 0.500000
vt 0.125000 0.750000
vt 0.125000 0.250000
vt 0.062500 0.500000
vt 0.187500 0.500000
vt 0.375000 0.750000
vt 0.375000 0.250000
vt 0.312500 0.500000
vt 0.437500 0.500000
vt 0.437500 0.250000
vt 0.312500 0.250000
vt 0.312500 0.750000
vt 0.187500 0.250000
vt 0.062500 0.250000
vt 0.062500 0.750000
vt 0.437500 0.250000
vt 0.312500 0.250000
vt 0.312500 0.750000
vt 0.687500 0.250000
vt 0.562500 0.250000
vt 0.562500 0.750000
vt 0.687500 0.250000
vt 0.562500 0.250000
vt 0.562500 0.750000
vt 0.937500 0.250000
vt 0.812500 0.250000
vt 0.812500 0.750000
vt 0.937500 0.750000
vt 0.687500 0.750000
vt 0.687500 0.750000
vt 0.437500 0.750000
vt 0.187500 0.750000
vt 0.437500 0.750000
s 1
usemtl Material
f 98/149/1 29/59/2 4/9/3 42/85/4
f 97/148/5 32/65/6 8/21/7 45/91/8
f 96/147/9 35/71/10 6/15/11 48/97/12
f 95/146/13 38/77/14 2/3/15 28/57/16
f 94/145/17 46/93/18 5/12/19 37/75/20
f 93/144/21 41/83/22 2/4/15 38/76/14
f 92/143/23 51/102/24 20/46/25 50/101/26
f 91/142/27 52/103/28 21/48/29 53/104/30
f 90/141/31 29/58/2 11/28/32 54/105/33
f 89/140/34 55/106/35 19/45/36 49/99/37
f 88/139/38 56/107/39 22/49/40 57/108/41
f 87/138/42 34/69/43 16/39/44 58/109/45
f 86/137/46 59/110/47 10/27/48 40/81/49
f 85/136/50 60/111/51 23/50/52 61/112/53
f 84/135/54 50/100/26 20/47/25 62/113/55
f 83/134/56 63/114/57 18/43/58 36/72/59
f 82/133/60 64/115/61 24/51/62 65/116/63
f 81/132/64 47/94/65 17/41/66 66/117/67
f 80/131/68 67/118/69 15/37/70 33/66/71
f 79/130/72 68/119/73 25/52/74 69/120/75
f 78/129/76 44/88/77 14/35/78 70/121/79
f 77/128/80 71/122/81 12/31/82 30/60/83
f 76/127/84 72/123/85 26/53/86 73/124/87
f 75/126/88 41/82/22 11/29/32 74/125/89
f 72/123/85 75/126/88 74/125/89 26/53/86
f 10/26/48 28/56/16 75/126/88 72/123/85
f 28/56/16 2/5/15 41/82/22 75/126/88
f 27/54/90 76/127/84 73/124/87 9/24/91
f 1/1/92 40/80/49 76/127/84 27/54/90
f 40/80/49 10/26/48 72/123/85 76/127/84
f 39/78/93 77/128/80 30/60/83 3/6/94
f 9/24/91 73/124/87 77/128/80 39/78/93
f 73/124/87 26/53/86 71/122/81 77/128/80
f 68/119/73 78/129/76 70/121/79 25/52/74
f 12/30/82 42/84/4 78/129/76 68/119/73
f 42/84/4 4/10/3 44/88/77 78/129/76
f 31/62/95 79/130/72 69/120/75 13/32/96
f 3/7/94 30/61/83 79/130/72 31/62/95
f 30/61/83 12/30/82 68/119/73 79/130/72
f 43/86/97 80/131/68 33/66/71 7/18/98
f 13/32/96 69/120/75 80/131/68 43/86/97
f 69/120/75 25/52/74 67/118/69 80/131/68
f 64/115/61 81/132/64 66/117/67 24/51/62
f 15/36/70 45/90/8 81/132/64 64/115/61
f 45/90/8 8/22/7 47/94/65 81/132/64
f 34/68/43 82/133/60 65/116/63 16/38/44
f 7/19/98 33/67/71 82/133/60 34/68/43
f 33/67/71 15/36/70 64/115/61 82/133/60
f 46/92/18 83/134/56 36/72/59 5/13/19
f 16/38/44 65/116/63 83/134/56 46/92/18
f 65/116/63 24/51/62 63/114/57 83/134/56
f 60/111/51 84/135/54 62/113/55 23/50/52
f 18/42/58 48/96/12 84/135/54 60/111/51
f 48/96/12 6/16/11 50/100/26 84/135/54
f 37/74/20 85/136/50 61/112/53 19/44/36
f 5/14/19 36/73/59 85/136/50 37/74/20
f 36/73/59 18/42/58 60/111/51 85/136/50
f 49/98/37 86/137/46 40/81/49 1/2/92
f 19/44/36 61/112/53 86/137/46 49/98/37
f 61/112/53 23/50/52 59/110/47 86/137/46
f 56/107/39 87/138/42 58/109/45 22/49/40
f 13/33/96 43/87/97 87/138/42 56/107/39
f 43/87/97 7/20/98 34/69/43 87/138/42
f 39/79/93 88/139/38 57/108/41 9/25/91
f 3/8/94 31/63/95 88/139/38 39/79/93
f 31/63/95 13/33/96 56/107/39 88/139/38
f 27/55/90 89/140/34 49/99/37 1/2/92
f 9/25/91 57/108/41 89/140/34 27/55/90
f 57/108/41 22/49/40 55/106/35 89/140/34
f 52/103/28 90/141/31 54/105/33 21/48/29
f 14/34/78 44/89/77 90/141/31 52/103/28
f 44/89/77 4/11/3 29/58/2 90/141/31
f 47/95/65 91/142/27 53/104/30 17/40/66
f 8/23/7 32/64/6 91/142/27 47/95/65
f 32/64/6 14/34/78 52/103/28 91/142/27
f 35/70/10 92/143/23 50/101/26 6/17/11
f 17/40/66 53/104/30 92/143/23 35/70/10
f 53/104/30 21/48/29 51/102/24 92/143/23
f 51/102/24 93/144/21 38/76/14 20/46/25
f 21/48/29 54/105/33 93/144/21 51/102/24
f 54/105/33 11/28/32 41/83/22 93/144/21
f 55/106/35 94/145/17 37/75/20 19/45/36
f 22/49/40 58/109/45 94/145/17 55/106/35
f 58/109/45 16/39/44 46/93/18 94/145/17
f 59/110/47 95/146/13 28/57/16 10/27/48
f 23/50/52 62/113/55 95/146/13 59/110/47
f 62/113/55 20/47/25 38/77/14 95/146/13
f 63/114/57 96/147/9 48/97/12 18/43/58
f 24/51/62 66/117/67 96/147/9 63/114/57
f 66/117/67 17/41/66 35/71/10 96/147/9
f 67/118/69 97/148/5 45/91/8 15/37/70
f 25/52/74 70/121/79 97/148/5 67/118/69
f 70/121/79 14/35/78 32/65/6 97/148/5
f 71/122/81 98/149/1 42/85/4 12/31/82
f 26/53/86 74/125/89 98/149/1 71/122/81
f 74/125/89 11/29/32 29/59/2 98/149/1
