# Blender 3.3.1
# www.blender.org
o Cube.001
v -0.250000 -0.250000 -7.750000
v -0.250000 0.250000 -7.750000
v -0.250000 -0.250000 -8.250000
v -0.250000 0.250000 -8.250000
v 0.250000 -0.250000 -7.750000
v 0.250000 0.250000 -7.750000
v 0.250000 -0.250000 -8.250000
v 0.250000 0.250000 -8.250000
vn -1.0000 -0.0000 -0.0000
vn -0.0000 -0.0000 -1.0000
vn 1.0000 -0.0000 -0.0000
vn -0.0000 -0.0000 1.0000
vn -0.0000 -1.0000 -0.0000
vn -0.0000 1.0000 -0.0000
vt 0.446938 0.061440
vt 0.553457 0.055973
vt 0.680265 0.066118
vt 0.441471 0.061440
vt 0.547990 0.055973
vt 0.035684 0.035684
vt 0.446938 0.055973
vt 0.320129 0.051295
vt 0.680265 0.071585
vt 0.441471 0.055973
vt 0.314662 0.051295
vt 0.035684 0.041150
vt 0.203465 0.040756
vt 0.553457 0.061440
vt 0.674799 0.066118
vt 0.197999 0.040756
vt 0.547990 0.061440
vt 0.041150 0.035684
vt 0.320129 0.045828
vt 0.203465 0.046223
vt 0.674799 0.071585
vt 0.314662 0.045828
vt 0.197999 0.046223
vt 0.041150 0.041150
s 0
f 1/1/1 2/4/1 4/10/1 3/7/1
f 3/8/2 4/11/2 8/22/2 7/19/2
f 7/20/3 8/23/3 6/16/3 5/13/3
f 5/14/4 6/17/4 2/5/4 1/2/4
f 3/9/5 7/21/5 5/15/5 1/3/5
f 8/24/6 4/12/6 2/6/6 6/18/6
