# Blender 3.3.1
# www.blender.org
mtllib cube.mtl
o Cube.001
v -10.956859 -10.956859 10.956859
v -10.956859 10.956859 10.956859
v -10.956859 -10.956859 -10.956859
v -10.956859 10.956859 -10.956859
v 10.956859 -10.956859 10.956859
v 10.956859 10.956859 10.956859
v 10.956859 -10.956859 -10.956859
v 10.956859 10.956859 -10.956859
v -12.217644 -12.217644 0.000000
v -12.217644 0.000000 12.217644
v -12.217644 12.217644 0.000000
v -12.217644 0.000000 -12.217644
v 0.000000 -12.217644 -12.217644
v 0.000000 12.217644 -12.217644
v 12.217644 0.000000 -12.217644
v 12.217644 -12.217644 0.000000
v 12.217644 12.217644 0.000000
v 12.217644 0.000000 12.217644
v 0.000000 -12.217644 12.217644
v 0.000000 12.217644 12.217644
v 0.000000 16.000000 0.000000
v 0.000000 -16.000000 0.000000
v 0.000000 0.000000 16.000000
v 16.000000 0.000000 0.000000
v 0.000000 0.000000 -16.000000
v -16.000000 0.000000 0.000000
v -11.876328 -11.876328 6.634732
v -11.876328 6.634732 11.876328
v -11.876328 11.876328 -6.634732
v -11.876328 -6.634732 -11.876328
v -6.634732 -11.876328 -11.876328
v 6.634732 11.876328 -11.876328
v 11.876328 -6.634732 -11.876328
v 11.876328 -11.876328 -6.634732
v 11.876328 11.876328 6.634732
v 11.876328 -6.634732 11.876328
v 6.634732 -11.876328 11.876328
v -6.634732 11.876328 11.876328
v -11.876328 -11.876328 -6.634732
v -11.876328 -6.634732 11.876328
v -11.876328 11.876328 6.634732
v -11.876328 6.634732 -11.876328
v 6.634732 -11.876328 -11.876328
v -6.634732 11.876328 -11.876328
v 11.876328 6.634732 -11.876328
v 11.876328 -11.876328 6.634732
v 11.876328 11.876328 -6.634732
v 11.876328 6.634732 11.876328
v -6.634732 -11.876328 11.876328
v 6.634732 11.876328 11.876328
v 0.000000 14.976049 6.976048
v 0.000000 14.976049 -6.976048
v 6.976048 14.976049 0.000000
v -6.976048 14.976049 0.000000
v 0.000000 -14.976049 6.976048
v 0.000000 -14.976049 -6.976048
v -6.976048 -14.976049 0.000000
v 6.976048 -14.976049 0.000000
v -6.976048 0.000000 14.976049
v 6.976048 0.000000 14.976049
v 0.000000 -6.976048 14.976049
v 0.000000 6.976048 14.976049
v 14.976049 0.000000 6.976048
v 14.976049 0.000000 -6.976048
v 14.976049 -6.976048 0.000000
v 14.976049 6.976048 0.000000
v 6.976048 0.000000 -14.976049
v -6.976048 0.000000 -14.976049
v 0.000000 -6.976048 -14.976049
v 0.000000 6.976048 -14.976049
v -14.976049 0.000000 -6.976048
v -14.976049 0.000000 6.976048
v -14.976049 -6.976048 0.000000
v -14.976049 6.976048 0.000000
v -13.952097 6.976048 6.976048
v -13.952097 -6.976048 6.976048
v -13.952097 -6.976048 -6.976048
v -6.976048 6.976048 -13.952097
v -6.976048 -6.976048 -13.952097
v 6.976048 -6.976048 -13.952097
v 13.952097 6.976048 -6.976048
v 13.952097 -6.976048 -6.976048
v 13.952097 -6.976048 6.976048
v 6.976048 6.976048 13.952097
v 6.976048 -6.976048 13.952097
v -6.976048 -6.976048 13.952097
v 6.976048 -13.952097 -6.976048
v -6.976048 -13.952097 -6.976048
v -6.976048 -13.952097 6.976048
v -6.976048 13.952097 -6.976048
v 6.976048 13.952097 -6.976048
v 6.976048 13.952097 6.976048
v -6.976048 13.952097 6.976048
v 6.976048 -13.952097 6.976048
v -6.976048 6.976048 13.952097
v 13.952097 6.976048 6.976048
v 6.976048 6.976048 -13.952097
v -13.952097 6.976048 -6.976048
vn -0.9318 0.2567 -0.2567
vn -0.6893 0.6893 -0.2232
vn -0.5774 0.5774 -0.5774
vn -0.6893 0.2232 -0.6893
vn 0.2567 0.2567 -0.9318
vn 0.2232 0.6893 -0.6893
vn 0.5774 0.5774 -0.5774
vn 0.6893 0.2232 -0.6893
vn 0.9318 0.2567 0.2567
vn 0.6893 0.6893 0.2232
vn 0.5774 0.5774 0.5774
vn 0.6893 0.2232 0.6893
vn -0.2567 0.2567 0.9318
vn -0.2232 0.6893 0.6893
vn -0.5774 0.5774 0.5774
vn -0.6893 0.2232 0.6893
vn 0.2567 -0.9318 0.2567
vn 0.6893 -0.6893 0.2232
vn 0.5774 -0.5774 0.5774
vn 0.2232 -0.6893 0.6893
vn -0.2567 0.9318 0.2567
vn -0.6893 0.6893 0.2232
vn 0.2567 0.9318 0.2567
vn -0.0000 0.9574 0.2887
vn -0.0000 0.7071 0.7071
vn 0.2232 0.6893 0.6893
vn 0.2567 0.9318 -0.2567
vn -0.0000 0.9574 -0.2887
vn -0.0000 1.0000 -0.0000
vn 0.2887 0.9574 -0.0000
vn -0.2567 0.9318 -0.2567
vn -0.7071 0.7071 -0.0000
vn -0.2887 0.9574 -0.0000
vn -0.2567 -0.9318 0.2567
vn -0.0000 -0.9574 0.2887
vn -0.0000 -0.7071 0.7071
vn -0.2232 -0.6893 0.6893
vn -0.2567 -0.9318 -0.2567
vn -0.0000 -0.9574 -0.2887
vn -0.0000 -1.0000 -0.0000
vn -0.2887 -0.9574 -0.0000
vn 0.2567 -0.9318 -0.2567
vn 0.6893 -0.6893 -0.2232
vn 0.7071 -0.7071 -0.0000
vn 0.2887 -0.9574 -0.0000
vn -0.2567 -0.2567 0.9318
vn -0.2887 -0.0000 0.9574
vn -0.7071 -0.0000 0.7071
vn -0.6893 -0.2232 0.6893
vn 0.2567 -0.2567 0.9318
vn 0.2887 -0.0000 0.9574
vn -0.0000 -0.0000 1.0000
vn -0.0000 -0.2887 0.9574
vn 0.2567 0.2567 0.9318
vn -0.0000 0.2887 0.9574
vn 0.9318 -0.2567 0.2567
vn 0.9574 -0.0000 0.2887
vn 0.7071 -0.0000 0.7071
vn 0.6893 -0.2232 0.6893
vn 0.9318 -0.2567 -0.2567
vn 0.9574 -0.0000 -0.2887
vn 1.0000 -0.0000 -0.0000
vn 0.9574 -0.2887 -0.0000
vn 0.9318 0.2567 -0.2567
vn 0.6893 0.6893 -0.2232
vn 0.7071 0.7071 -0.0000
vn 0.9574 0.2887 -0.0000
vn 0.2567 -0.2567 -0.9318
vn 0.2887 -0.0000 -0.9574
vn 0.7071 -0.0000 -0.7071
vn 0.6893 -0.2232 -0.6893
vn -0.2567 -0.2567 -0.9318
vn -0.2887 -0.0000 -0.9574
vn -0.0000 -0.0000 -1.0000
vn -0.0000 -0.2887 -0.9574
vn -0.2567 0.2567 -0.9318
vn -0.2232 0.6893 -0.6893
vn -0.0000 0.7071 -0.7071
vn -0.0000 0.2887 -0.9574
vn -0.9318 -0.2567 -0.2567
vn -0.9574 -0.0000 -0.2887
vn -0.7071 -0.0000 -0.7071
vn -0.6893 -0.2232 -0.6893
vn -0.9318 -0.2567 0.2567
vn -0.9574 -0.0000 0.2887
vn -1.0000 -0.0000 -0.0000
vn -0.9574 -0.2887 -0.0000
vn -0.9318 0.2567 0.2567
vn -0.9574 0.2887 -0.0000
vn -0.6893 -0.6893 0.2232
vn -0.7071 -0.7071 -0.0000
vn -0.5774 -0.5774 0.5774
vn -0.6893 -0.6893 -0.2232
vn -0.5774 -0.5774 -0.5774
vn -0.2232 -0.6893 -0.6893
vn -0.0000 -0.7071 -0.7071
vn 0.2232 -0.6893 -0.6893
vn 0.5774 -0.5774 -0.5774
vt 0.431363 0.475576
vt 0.549340 0.334125
vt 0.067132 0.451363
vt 0.560106 0.334125
vt 0.319128 0.775260
vt 0.443575 0.475576
vt 0.431363 0.524424
vt 0.200735 0.477274
vt 0.067132 0.486168
vt 0.443575 0.524424
vt 0.203642 0.477274
vt 0.319128 0.786959
vt 0.058431 0.451363
vt 0.672027 0.311390
vt 0.549340 0.291063
vt 0.687043 0.311390
vt 0.560106 0.291063
vt 0.322052 0.775260
vt 0.200735 0.488906
vt 0.672027 0.251329
vt 0.058431 0.486168
vt 0.203642 0.488906
vt 0.687043 0.251329
vt 0.322052 0.786959
vt 0.431363 0.500000
vt 0.067132 0.468766
vt 0.437469 0.475576
vt 0.554723 0.334125
vt 0.319128 0.781109
vt 0.443575 0.500000
vt 0.202188 0.477274
vt 0.437469 0.524424
vt 0.200735 0.483090
vt 0.062782 0.486168
vt 0.320590 0.786959
vt 0.203642 0.483090
vt 0.679535 0.251329
vt 0.202188 0.488906
vt 0.672027 0.281359
vt 0.058431 0.468766
vt 0.322052 0.781109
vt 0.687043 0.281359
vt 0.554723 0.291063
vt 0.679535 0.311390
vt 0.549340 0.312594
vt 0.062782 0.451363
vt 0.320590 0.775260
vt 0.560106 0.312594
vt 0.320590 0.781109
vt 0.062782 0.468766
vt 0.554723 0.312594
vt 0.679535 0.281359
vt 0.202188 0.483090
vt 0.200600 0.478727
vt 0.437469 0.500000
vt 0.431363 0.487788
vt 0.067132 0.460064
vt 0.440522 0.475576
vt 0.557414 0.334125
vt 0.319128 0.784034
vt 0.443575 0.512212
vt 0.434416 0.524424
vt 0.201462 0.477274
vt 0.200735 0.480182
vt 0.064957 0.486168
vt 0.321321 0.786959
vt 0.203642 0.485998
vt 0.201462 0.488906
vt 0.675781 0.251329
vt 0.672027 0.266344
vt 0.058431 0.477467
vt 0.322052 0.778184
vt 0.687043 0.296375
vt 0.675781 0.311390
vt 0.552031 0.291063
vt 0.549340 0.301828
vt 0.060606 0.451363
vt 0.319859 0.775260
vt 0.560106 0.323360
vt 0.431363 0.512212
vt 0.067132 0.477467
vt 0.434416 0.475576
vt 0.552031 0.334125
vt 0.443575 0.487788
vt 0.319128 0.778184
vt 0.202915 0.477274
vt 0.440522 0.524424
vt 0.200735 0.485998
vt 0.060606 0.486168
vt 0.203642 0.480182
vt 0.319859 0.786959
vt 0.683289 0.251329
vt 0.202915 0.488906
vt 0.672027 0.296375
vt 0.058431 0.460064
vt 0.687043 0.266344
vt 0.322052 0.784034
vt 0.557414 0.291063
vt 0.683289 0.311390
vt 0.549340 0.323360
vt 0.064957 0.451363
vt 0.560106 0.301828
vt 0.321321 0.775260
vt 0.320590 0.778184
vt 0.320590 0.784034
vt 0.321321 0.781109
vt 0.319859 0.781109
vt 0.062782 0.460064
vt 0.062782 0.477467
vt 0.064957 0.468766
vt 0.060606 0.468766
vt 0.554723 0.323360
vt 0.554723 0.301828
vt 0.552031 0.312594
vt 0.557414 0.312594
vt 0.679535 0.296375
vt 0.679535 0.266344
vt 0.675781 0.281359
vt 0.683289 0.281359
vt 0.202188 0.485998
vt 0.200600 0.482719
vt 0.200600 0.474735
vt 0.202188 0.480182
vt 0.201462 0.483090
vt 0.201598 0.478727
vt 0.202915 0.483090
vt 0.437469 0.512212
vt 0.437469 0.487788
vt 0.434416 0.500000
vt 0.440522 0.500000
vt 0.440522 0.487788
vt 0.434416 0.487788
vt 0.434416 0.512212
vt 0.201598 0.474735
vt 0.202915 0.480182
vt 0.201462 0.480182
vt 0.201462 0.485998
vt 0.683289 0.266344
vt 0.675781 0.266344
vt 0.675781 0.296375
vt 0.557414 0.301828
vt 0.552031 0.301828
vt 0.552031 0.323360
vt 0.060606 0.477467
vt 0.064957 0.477467
vt 0.064957 0.460064
vt 0.319859 0.784034
vt 0.321321 0.784034
vt 0.321321 0.778184
vt 0.319859 0.778184
vt 0.060606 0.460064
vt 0.557414 0.323360
vt 0.683289 0.296375
vt 0.201598 0.482719
vt 0.202915 0.485998
vt 0.440522 0.512212
s 1
usemtl Material
f 98/156/1 29/61/2 4/10/3 42/87/4
f 97/155/5 32/67/6 8/22/7 45/93/8
f 96/153/9 35/73/10 6/16/11 48/99/12
f 95/152/13 38/79/14 2/4/15 28/59/16
f 94/151/17 46/95/18 5/13/19 37/77/20
f 93/150/21 41/85/22 2/5/15 38/78/14
f 92/149/23 51/104/24 20/47/25 50/103/26
f 91/148/27 52/105/28 21/49/29 53/106/30
f 90/147/31 29/60/2 11/29/32 54/107/33
f 89/146/34 55/108/35 19/46/36 49/101/37
f 88/145/38 56/109/39 22/50/40 57/110/41
f 87/144/42 34/71/43 16/40/44 58/111/45
f 86/143/46 59/112/47 10/28/48 40/83/49
f 85/142/50 60/113/51 23/51/52 61/114/53
f 84/141/54 50/102/26 20/48/25 62/115/55
f 83/140/56 63/116/57 18/44/58 36/74/59
f 82/139/60 64/117/61 24/52/62 65/118/63
f 81/138/64 47/96/65 17/42/66 66/119/67
f 80/137/68 67/120/69 15/38/70 33/68/71
f 79/136/72 68/123/73 25/53/74 69/124/75
f 78/135/76 44/90/77 14/36/78 70/126/79
f 77/133/80 71/127/81 12/32/82 30/62/83
f 76/132/84 72/128/85 26/55/86 73/129/87
f 75/131/88 41/84/22 11/30/32 74/130/89
f 72/128/85 75/131/88 74/130/89 26/55/86
f 10/27/48 28/58/16 75/131/88 72/128/85
f 28/58/16 2/6/15 41/84/22 75/131/88
f 27/56/90 76/132/84 73/129/87 9/25/91
f 1/1/92 40/82/49 76/132/84 27/56/90
f 40/82/49 10/27/48 72/128/85 76/132/84
f 39/80/93 77/133/80 30/62/83 3/7/94
f 9/25/91 73/129/87 77/133/80 39/80/93
f 73/129/87 26/55/86 71/127/81 77/133/80
f 68/122/73 78/134/76 70/125/79 25/54/74
f 12/31/82 42/86/4 78/135/76 68/123/73
f 42/86/4 4/11/3 44/90/77 78/135/76
f 31/64/95 79/136/72 69/124/75 13/33/96
f 3/8/94 30/63/83 79/136/72 31/64/95
f 30/63/83 12/31/82 68/123/73 79/136/72
f 43/88/97 80/137/68 33/68/71 7/19/98
f 13/33/96 69/124/75 80/137/68 43/88/97
f 69/124/75 25/53/74 67/120/69 80/137/68
f 64/117/61 81/138/64 66/119/67 24/52/62
f 15/37/70 45/92/8 81/138/64 64/117/61
f 45/92/8 8/23/7 47/96/65 81/138/64
f 34/70/43 82/139/60 65/118/63 16/39/44
f 7/20/98 33/69/71 82/139/60 34/70/43
f 33/69/71 15/37/70 64/117/61 82/139/60
f 46/94/18 83/140/56 36/74/59 5/14/19
f 16/39/44 65/118/63 83/140/56 46/94/18
f 65/118/63 24/52/62 63/116/57 83/140/56
f 60/113/51 84/141/54 62/115/55 23/51/52
f 18/43/58 48/98/12 84/141/54 60/113/51
f 48/98/12 6/17/11 50/102/26 84/141/54
f 37/76/20 85/142/50 61/114/53 19/45/36
f 5/15/19 36/75/59 85/142/50 37/76/20
f 36/75/59 18/43/58 60/113/51 85/142/50
f 49/100/37 86/143/46 40/83/49 1/2/92
f 19/45/36 61/114/53 86/143/46 49/100/37
f 61/114/53 23/51/52 59/112/47 86/143/46
f 56/109/39 87/144/42 58/111/45 22/50/40
f 13/34/96 43/89/97 87/144/42 56/109/39
f 43/89/97 7/21/98 34/71/43 87/144/42
f 39/81/93 88/145/38 57/110/41 9/26/91
f 3/9/94 31/65/95 88/145/38 39/81/93
f 31/65/95 13/34/96 56/109/39 88/145/38
f 27/57/90 89/146/34 49/101/37 1/3/92
f 9/26/91 57/110/41 89/146/34 27/57/90
f 57/110/41 22/50/40 55/108/35 89/146/34
f 52/105/28 90/147/31 54/107/33 21/49/29
f 14/35/78 44/91/77 90/147/31 52/105/28
f 44/91/77 4/12/3 29/60/2 90/147/31
f 47/97/65 91/148/27 53/106/30 17/41/66
f 8/24/7 32/66/6 91/148/27 47/97/65
f 32/66/6 14/35/78 52/105/28 91/148/27
f 35/72/10 92/149/23 50/103/26 6/18/11
f 17/41/66 53/106/30 92/149/23 35/72/10
f 53/106/30 21/49/29 51/104/24 92/149/23
f 51/104/24 93/150/21 38/78/14 20/47/25
f 21/49/29 54/107/33 93/150/21 51/104/24
f 54/107/33 11/29/32 41/85/22 93/150/21
f 55/108/35 94/151/17 37/77/20 19/46/36
f 22/50/40 58/111/45 94/151/17 55/108/35
f 58/111/45 16/40/44 46/95/18 94/151/17
f 59/112/47 95/152/13 28/59/16 10/28/48
f 23/51/52 62/115/55 95/152/13 59/112/47
f 62/115/55 20/48/25 38/79/14 95/152/13
f 63/116/57 96/153/9 48/99/12 18/44/58
f 24/52/62 66/119/67 96/153/9 63/116/57
f 66/119/67 17/42/66 35/73/10 96/153/9
f 67/120/69 97/155/5 45/93/8 15/38/70
f 25/54/74 70/125/79 97/154/5 67/121/69
f 70/126/79 14/36/78 32/67/6 97/155/5
f 71/127/81 98/156/1 42/87/4 12/32/82
f 26/55/86 74/130/89 98/156/1 71/127/81
f 74/130/89 11/30/32 29/61/2 98/156/1
