# Blender 3.3.1
# www.blender.org
mtllib dungeon-walls.mtl
o Cube.002
v -128.000000 0.000000 128.000000
v -128.000000 256.000000 128.000000
v -128.000000 0.000000 -128.000000
v -128.000000 256.000000 -128.000000
v 128.000000 0.000000 128.000000
v 128.000000 256.000000 128.000000
v 128.000000 0.000000 -128.000000
v 128.000000 256.000000 -128.000000
v -128.000000 0.000000 128.000000
v -128.000000 256.000000 128.000000
v 128.000000 0.000000 128.000000
v 128.000000 256.000000 128.000000
v 32.000000 256.000000 128.000000
v 128.000000 288.000000 512.000000
v 32.000000 0.000000 128.000000
v -32.000000 288.000000 256.000000
v 32.000000 288.000000 256.000000
v -128.000000 288.000000 256.000000
v 32.000000 32.000000 256.000000
v -32.000000 0.000000 128.000000
v 32.000000 256.000000 128.000000
v -32.000000 256.000000 128.000000
v 32.000000 0.000000 128.000000
v -32.000000 256.000000 128.000000
v -32.000000 0.000000 128.000000
v -32.000000 32.000000 256.000000
v -127.999977 32.000000 512.000000
v 128.000000 32.000008 512.000000
v -128.000000 32.000000 256.000000
v -128.000000 288.000000 512.000000
v 128.000000 32.000000 255.999985
v 128.000000 288.000000 255.999985
v -128.000000 32.000000 256.000000
v -128.000000 288.000000 256.000000
v 32.000000 32.000000 256.000000
v -32.000000 288.000000 256.000000
v -32.000000 32.000000 256.000000
v 32.000000 288.000000 256.000000
v 128.000015 32.000008 512.000000
v 128.000015 288.000000 512.000000
v 127.999985 32.000008 256.000000
v 127.999985 288.000000 256.000000
v 127.999992 32.000008 416.000000
v 127.999992 288.000000 352.000000
v 127.999992 32.000008 352.000000
v 127.999992 288.000000 416.000000
v 128.000000 288.000000 352.000000
v 128.000000 32.000008 352.000000
v 256.000000 256.000000 416.000000
v 256.000000 256.000000 352.000000
v 256.000000 0.000008 352.000000
v 128.000000 288.000000 416.000000
v 128.000000 32.000008 416.000000
v 256.000000 0.000008 416.000000
v 256.000000 0.000008 256.000000
v 256.000000 256.000000 256.000000
v 512.000000 0.000008 256.000000
v 512.000000 256.000000 256.000000
v 256.000000 0.000008 512.000000
v 256.000000 256.000000 512.000000
v 512.000000 0.000008 511.999969
v 512.000000 256.000000 511.999969
v 256.000000 0.000008 256.000000
v 256.000000 256.000000 256.000000
v 256.000000 0.000008 512.000000
v 256.000000 256.000000 512.000000
v 256.000000 0.000008 352.000000
v 256.000000 256.000000 416.000000
v 256.000000 0.000008 416.000000
v 256.000000 256.000000 352.000000
vn 1.0000 -0.0000 -0.0000
vn -0.0000 -0.0000 1.0000
vn -1.0000 -0.0000 -0.0000
vn -0.0000 -0.0000 -1.0000
vt 0.000000 0.000000
vt 0.000000 4.000000
vt 4.000000 0.000000
vt 0.000000 0.000000
vt 4.000000 4.000000
vt 0.000000 4.000000
vt 4.000000 0.000000
vt 4.000000 4.000000
vt 4.000000 0.000000
vt 0.000000 0.000000
vt 4.000000 4.000000
vt 0.000000 4.000000
vt 0.000000 4.000000
vt 0.000000 0.000000
vt 1.500000 4.000000
vt 1.500000 0.000000
vt 0.000000 4.000000
vt 0.000000 4.000000
vt 0.000000 0.000000
vt 0.000000 4.000000
vt 2.000000 4.000000
vt 4.000000 4.000000
vt 2.000000 0.000000
vt 1.500000 4.000000
vt 0.000000 0.000000
vt 2.000000 4.000000
vt 0.000000 4.000000
vt 1.500000 0.000000
vt 2.000000 0.000000
vt 0.000000 0.000000
vt 4.000000 0.000000
vt 0.000000 0.000000
vt 0.000000 0.000000
vt 4.000000 0.000000
vt 4.000000 4.000000
vt 0.000000 4.000000
vt 0.000000 4.000000
vt 0.000000 0.000000
vt 1.500000 4.000000
vt 1.500000 0.000000
vt 1.500000 4.000000
vt 0.000000 0.000000
vt 0.000000 4.000000
vt 1.500000 0.000000
vt 0.000000 4.000000
vt 0.000000 0.000000
vt 1.500000 4.000000
vt 1.500000 0.000000
vt 1.500000 4.000000
vt 0.000000 0.000000
vt 0.000000 4.000000
vt 1.500000 0.000000
vt 0.000000 4.000000
vt 0.000000 0.000000
vt 0.000000 4.000000
vt 2.000000 4.000000
vt 2.000000 0.000000
vt 2.000000 4.000000
vt 2.000000 0.000000
vt 0.000000 0.000000
vt 0.000000 0.000000
vt 0.000000 4.000000
vt 4.000000 0.000000
vt 0.000000 0.000000
vt 4.000000 4.000000
vt 0.000000 4.000000
vt 4.000000 0.000000
vt 4.000000 4.000000
vt 4.000000 0.000000
vt 0.000000 0.000000
vt 4.000000 4.000000
vt 0.000000 4.000000
vt 0.000000 4.000000
vt 0.000000 0.000000
vt 1.500000 4.000000
vt 1.500000 0.000000
vt 1.500000 4.000000
vt 0.000000 0.000000
vt 0.000000 4.000000
vt 1.500000 0.000000
s 0
usemtl Material.003
f 1/1/1 3/3/1 4/5/1 2/2/1
f 3/4/2 7/9/2 8/11/2 4/6/2
f 7/10/3 5/7/3 6/8/3 8/12/3
f 45/51/3 44/50/3 42/48/3 41/47/3
f 14/18/4 28/33/4 27/31/4 30/35/4
f 15/19/3 19/23/3 17/21/3 13/17/3
f 26/30/1 25/29/1 22/26/1 16/20/1
f 27/32/1 29/34/1 18/22/1 30/36/1
f 23/27/4 21/25/4 12/16/4 11/15/4
f 10/14/4 24/28/4 20/24/4 9/13/4
f 37/43/2 36/42/2 34/40/2 33/39/2
f 32/38/2 38/44/2 35/41/2 31/37/2
f 40/46/3 46/52/3 43/49/3 39/45/3
f 48/54/2 51/57/2 50/56/2 47/53/2
f 54/60/4 53/59/4 52/58/4 49/55/4
f 55/61/2 57/63/2 58/65/2 56/62/2
f 57/64/3 61/69/3 62/71/3 58/66/3
f 61/70/4 59/67/4 60/68/4 62/72/4
f 69/79/1 68/78/1 66/76/1 65/75/1
f 64/74/1 70/80/1 67/77/1 63/73/1
