# Blender 3.3.1
# www.blender.org
o Plane.026
v -5.000000 2.000000 -1.000000
v -7.000000 2.000000 -1.000000
v -5.000000 2.000000 1.000000
v -7.000000 2.000000 1.000000
v -5.213914 1.999570 -0.172603
v -5.161459 2.048835 -0.443013
v -6.455037 2.048835 -0.177119
v -6.448727 1.999570 -0.007115
v -6.488421 2.048835 -0.308432
v -6.638402 1.999570 0.032174
v -6.660850 2.048835 -0.245175
v -6.763532 2.049439 -0.099610
v -6.696409 2.098704 -0.113513
v -6.706452 1.999570 -0.296352
v -6.494328 2.048835 -0.058292
v -6.466901 1.999570 -0.373513
v -6.616881 2.048835 -0.032907
v -6.387914 1.999570 -0.191022
v -5.207567 2.048835 -0.559364
v -5.365254 1.999570 -0.309418
v -5.331384 2.048835 -0.577609
v -5.445040 1.999570 -0.489495
v -5.377225 2.048835 -0.479503
v -5.356638 1.999570 -0.641335
v -5.239168 2.048835 -0.236329
v -5.165006 1.999570 -0.613097
v -5.322693 2.048835 -0.363151
v -5.093644 1.999570 -0.433020
v -6.176311 1.999570 0.783193
v -6.187526 2.048835 0.613442
v -6.262133 2.048835 0.424330
v -6.364773 1.999570 0.827940
v -6.395217 2.048835 0.551355
v -6.497756 1.999570 0.687101
v -6.431064 2.048835 0.671266
v -6.442278 1.999570 0.501514
v -6.223372 2.048835 0.733352
v -6.242500 1.999570 0.358655
v -6.345140 2.048835 0.762265
v -6.120832 1.999570 0.597606
vn -0.0000 1.0000 -0.0000
vn -0.6119 0.7695 -0.1829
vn 0.6007 0.7579 0.2546
vn 0.6279 0.7451 -0.2248
vn -0.5484 0.6787 0.4885
vn -0.2070 0.7671 -0.6072
vn 0.6119 0.7695 0.1829
vn -0.5678 0.7645 -0.3050
vn -0.5343 0.7550 -0.3800
vn 0.0931 0.7695 -0.6318
vn 0.1295 0.7695 0.6253
vn 0.5937 0.7695 -0.2353
vn 0.6063 0.7695 0.2005
vn 0.1475 0.7695 0.6213
vn -0.5821 0.7692 0.2638
vn -0.2760 0.7400 0.6134
vn 0.1138 0.9932 -0.0236
vn -0.4266 0.7356 -0.5262
vn 0.5991 0.7521 -0.2747
vn -0.4643 0.7695 0.4384
vt 0.193502 0.934063
vt 0.177528 0.934063
vt 0.193502 0.918090
vt 0.177528 0.918090
vt 0.088267 0.935348
vt 0.079869 0.935348
vt 0.079869 0.926950
vt 0.080431 0.933249
vt 0.088267 0.926950
vt 0.088267 0.926950
vt 0.079869 0.926950
vt 0.080431 0.933249
vt 0.079869 0.935348
vt 0.088267 0.935348
vt 0.079869 0.926950
vt 0.088267 0.926950
vt 0.084068 0.935348
vt 0.088267 0.935348
vt 0.079869 0.935348
vt 0.079869 0.926950
vt 0.088267 0.926950
vt 0.087705 0.933249
vt 0.079869 0.935348
vt 0.088267 0.935348
vt 0.079869 0.926950
vt 0.088267 0.926950
vt 0.087705 0.929049
vt 0.079869 0.935348
vt 0.088267 0.935348
vt 0.079869 0.926950
vt 0.088267 0.926950
vt 0.080431 0.929049
vt 0.079869 0.935348
vt 0.088267 0.935348
vt 0.088267 0.926950
vt 0.079869 0.926950
vt 0.084068 0.926950
vt 0.088267 0.935348
vt 0.079869 0.935348
vt 0.084068 0.935348
vt 0.088267 0.926950
vt 0.079869 0.926950
vt 0.088267 0.935348
vt 0.079869 0.935348
vt 0.088267 0.926950
vt 0.087705 0.933249
vt 0.079869 0.926950
vt 0.079869 0.935348
vt 0.088267 0.935348
vt 0.079869 0.926950
vt 0.087705 0.929049
vt 0.088267 0.926950
vt 0.088267 0.935348
vt 0.079869 0.935348
vt 0.088267 0.926950
vt 0.079869 0.926950
vt 0.080431 0.929049
vt 0.088267 0.935348
vt 0.079869 0.935348
vt 0.088267 0.926950
vt 0.084068 0.926950
vt 0.079869 0.926950
vt 0.079869 0.935348
vt 0.088267 0.935348
vt 0.088267 0.935348
vt 0.079869 0.935348
vt 0.080431 0.933249
vt 0.079869 0.926950
vt 0.088267 0.926950
vt 0.084068 0.935348
vt 0.088267 0.926950
vt 0.079869 0.926950
vt 0.088267 0.935348
vt 0.079869 0.935348
vt 0.088267 0.926950
vt 0.087705 0.933249
vt 0.079869 0.926950
vt 0.079869 0.935348
vt 0.088267 0.935348
vt 0.079869 0.926950
vt 0.087705 0.929049
vt 0.088267 0.926950
vt 0.088267 0.935348
vt 0.079869 0.935348
vt 0.080431 0.929049
vt 0.088267 0.926950
vt 0.079869 0.926950
vt 0.088267 0.935348
vt 0.079869 0.935348
vt 0.084068 0.926950
vt 0.088267 0.926950
vt 0.079869 0.926950
vt 0.079869 0.935348
vt 0.088267 0.935348
s 0
f 1/1/1 2/2/1 4/4/1 3/3/1
f 36/83/2 34/78/2 35/80/2 33/75/2
f 5/5/3 28/63/3 6/7/3 25/55/3
f 18/38/4 16/33/4 9/15/4 7/10/4
f 39/90/1 37/85/1 30/67/1 31/70/1 33/76/1 35/81/1
f 20/43/5 5/6/5 25/56/5 27/60/5
f 16/34/6 14/28/6 11/20/6 9/16/6
f 29/65/7 40/93/7 30/68/7 37/86/7
f 24/53/8 22/48/8 23/50/8 21/45/8
f 14/29/9 12/23/9 13/25/9 11/21/9
f 27/61/1 25/57/1 6/8/1 19/40/1 21/46/1 23/51/1
f 26/58/10 24/54/10 21/47/10 19/41/10
f 10/18/11 8/13/11 15/30/11 17/35/11
f 28/64/12 26/59/12 19/42/12 6/9/12
f 8/14/13 18/39/13 7/11/13 15/31/13
f 32/73/14 29/66/14 37/87/14 39/91/14
f 22/49/15 20/44/15 27/62/15 23/52/15
f 12/24/16 10/19/16 17/36/16 13/26/16
f 17/37/17 15/32/17 7/12/17 9/17/17 11/22/17 13/27/17
f 38/88/18 36/84/18 33/77/18 31/71/18
f 40/94/19 38/89/19 31/72/19 30/69/19
f 34/79/20 32/74/20 39/92/20 35/82/20
