# Blender 3.3.1
# www.blender.org
o Plane.006
v 1.000000 0.000000 1.000000
v 3.000000 0.000000 1.000000
v 1.000000 0.000000 -1.000000
v 3.000000 0.000000 -1.000000
v 1.000000 0.000000 0.000000
v 3.000000 0.000000 0.000000
v 3.000000 0.000000 -0.500000
v 1.000000 0.000000 -0.500000
v 1.000000 0.000000 0.500000
v 3.000000 0.000000 0.500000
v 2.000000 0.000000 0.719121
v 2.000000 0.000000 -1.000000
v 2.000000 0.000000 -0.280879
v 2.000000 0.000000 -0.780879
v 2.000000 0.000000 0.219121
vn -0.0000 1.0000 -0.0000
vt 0.436417 0.832060
vt 0.441847 0.832060
vt 0.167583 0.954153
vt 0.173013 0.954153
vt 0.061064 0.946366
vt 0.177728 0.819557
vt 0.183157 0.819557
vt 0.066494 0.946366
vt 0.173013 0.952796
vt 0.066494 0.947723
vt 0.061064 0.947723
vt 0.167583 0.952796
vt 0.436417 0.833417
vt 0.177728 0.818200
vt 0.183157 0.818200
vt 0.441847 0.833417
vt 0.439132 0.832060
vt 0.170298 0.954153
vt 0.063779 0.946366
vt 0.180443 0.819557
vt 0.063779 0.947723
vt 0.170298 0.952796
vt 0.439132 0.833417
vt 0.180443 0.818200
s 0
f 14/22/1 7/9/1 4/4/1 12/18/1
f 15/24/1 10/15/1 6/7/1 13/20/1
f 13/19/1 6/8/1 7/10/1 14/21/1
f 11/17/1 2/2/1 10/16/1 15/23/1
f 1/1/1 11/17/1 15/23/1 9/13/1
f 5/5/1 13/19/1 14/21/1 8/11/1
f 9/14/1 15/24/1 13/20/1 5/6/1
f 8/12/1 14/22/1 12/18/1 3/3/1
