# Blender 3.3.1
# www.blender.org
o Plane.023
v 1.000000 0.000000 -1.000000
v 1.000000 0.000000 -3.000000
v -1.000000 0.000000 -1.000000
v -1.000000 0.000000 -3.000000
v 0.172603 -0.000430 -1.213915
v 0.443013 0.048835 -1.161459
v 0.177119 0.048835 -2.056663
v 0.007115 -0.000430 -2.050353
v 0.308432 0.048835 -2.090047
v -0.032174 -0.000430 -2.240028
v 0.245175 0.048835 -2.262476
v 0.099610 0.049439 -2.365158
v 0.113513 0.098704 -2.298036
v 0.296353 -0.000430 -2.308078
v 0.058292 0.048835 -2.095955
v 0.373513 -0.000430 -2.068527
v 0.032907 0.048835 -2.218508
v 0.191022 -0.000430 -1.989541
v 0.559364 0.048835 -1.207567
v 0.309418 -0.000430 -1.365254
v 0.577609 0.048835 -1.331384
v 0.489495 -0.000430 -1.445040
v 0.479502 0.048835 -1.377225
v 0.641335 -0.000430 -1.356638
v 0.236329 0.048835 -1.239168
v 0.613097 -0.000430 -1.165006
v 0.363151 0.048835 -1.322693
v 0.433020 -0.000430 -1.093644
v -0.783193 -0.000430 -2.176311
v -0.613441 0.048835 -2.187526
v -0.424330 0.048835 -2.262133
v -0.827940 -0.000430 -2.364774
v -0.551355 0.048835 -2.395218
v -0.687101 -0.000430 -2.497757
v -0.671266 0.048835 -2.431064
v -0.501514 -0.000430 -2.442278
v -0.733352 0.048835 -2.223372
v -0.358654 -0.000430 -2.242500
v -0.762264 0.048835 -2.345141
v -0.597606 -0.000430 -2.120833
vn -0.0000 1.0000 -0.0000
vn 0.1829 0.7695 -0.6119
vn -0.2546 0.7579 0.6007
vn 0.2248 0.7451 0.6279
vn -0.4885 0.6787 -0.5484
vn 0.6072 0.7671 -0.2070
vn -0.1829 0.7695 0.6119
vn 0.3050 0.7645 -0.5678
vn 0.3800 0.7550 -0.5343
vn 0.6318 0.7695 0.0931
vn -0.6253 0.7695 0.1295
vn 0.2353 0.7695 0.5937
vn -0.2005 0.7695 0.6063
vn -0.6213 0.7695 0.1475
vn -0.2638 0.7692 -0.5821
vn -0.6134 0.7400 -0.2760
vn 0.0236 0.9932 0.1138
vn 0.5262 0.7356 -0.4266
vn 0.2747 0.7521 0.5991
vn -0.4384 0.7695 -0.4643
vt 0.193502 0.934063
vt 0.177528 0.934063
vt 0.193502 0.918090
vt 0.177528 0.918090
vt 0.088267 0.935348
vt 0.079869 0.935348
vt 0.079869 0.926950
vt 0.080431 0.933249
vt 0.088267 0.926950
vt 0.088267 0.926950
vt 0.079869 0.926950
vt 0.080431 0.933249
vt 0.079869 0.935348
vt 0.088267 0.935348
vt 0.079869 0.926950
vt 0.088267 0.926950
vt 0.084068 0.935348
vt 0.088267 0.935348
vt 0.079869 0.935348
vt 0.079869 0.926950
vt 0.088267 0.926950
vt 0.087705 0.933249
vt 0.079869 0.935348
vt 0.088267 0.935348
vt 0.079869 0.926950
vt 0.088267 0.926950
vt 0.087705 0.929049
vt 0.079869 0.935348
vt 0.088267 0.935348
vt 0.079869 0.926950
vt 0.088267 0.926950
vt 0.080431 0.929049
vt 0.079869 0.935348
vt 0.088267 0.935348
vt 0.088267 0.926950
vt 0.079869 0.926950
vt 0.084068 0.926950
vt 0.088267 0.935348
vt 0.079869 0.935348
vt 0.084068 0.935348
vt 0.088267 0.926950
vt 0.079869 0.926950
vt 0.088267 0.935348
vt 0.079869 0.935348
vt 0.088267 0.926950
vt 0.087705 0.933249
vt 0.079869 0.926950
vt 0.079869 0.935348
vt 0.088267 0.935348
vt 0.079869 0.926950
vt 0.087705 0.929049
vt 0.088267 0.926950
vt 0.088267 0.935348
vt 0.079869 0.935348
vt 0.088267 0.926950
vt 0.079869 0.926950
vt 0.080431 0.929049
vt 0.088267 0.935348
vt 0.079869 0.935348
vt 0.088267 0.926950
vt 0.084068 0.926950
vt 0.079869 0.926950
vt 0.079869 0.935348
vt 0.088267 0.935348
vt 0.088267 0.935348
vt 0.079869 0.935348
vt 0.080431 0.933249
vt 0.079869 0.926950
vt 0.088267 0.926950
vt 0.084068 0.935348
vt 0.088267 0.926950
vt 0.079869 0.926950
vt 0.088267 0.935348
vt 0.079869 0.935348
vt 0.088267 0.926950
vt 0.087705 0.933249
vt 0.079869 0.926950
vt 0.079869 0.935348
vt 0.088267 0.935348
vt 0.079869 0.926950
vt 0.087705 0.929049
vt 0.088267 0.926950
vt 0.088267 0.935348
vt 0.079869 0.935348
vt 0.080431 0.929049
vt 0.088267 0.926950
vt 0.079869 0.926950
vt 0.088267 0.935348
vt 0.079869 0.935348
vt 0.084068 0.926950
vt 0.088267 0.926950
vt 0.079869 0.926950
vt 0.079869 0.935348
vt 0.088267 0.935348
s 0
f 1/1/1 2/2/1 4/4/1 3/3/1
f 36/83/2 34/78/2 35/80/2 33/75/2
f 5/5/3 28/63/3 6/7/3 25/55/3
f 18/38/4 16/33/4 9/15/4 7/10/4
f 39/90/1 37/85/1 30/67/1 31/70/1 33/76/1 35/81/1
f 20/43/5 5/6/5 25/56/5 27/60/5
f 16/34/6 14/28/6 11/20/6 9/16/6
f 29/65/7 40/93/7 30/68/7 37/86/7
f 24/53/8 22/48/8 23/50/8 21/45/8
f 14/29/9 12/23/9 13/25/9 11/21/9
f 27/61/1 25/57/1 6/8/1 19/40/1 21/46/1 23/51/1
f 26/58/10 24/54/10 21/47/10 19/41/10
f 10/18/11 8/13/11 15/30/11 17/35/11
f 28/64/12 26/59/12 19/42/12 6/9/12
f 8/14/13 18/39/13 7/11/13 15/31/13
f 32/73/14 29/66/14 37/87/14 39/91/14
f 22/49/15 20/44/15 27/62/15 23/52/15
f 12/24/16 10/19/16 17/36/16 13/26/16
f 17/37/17 15/32/17 7/12/17 9/17/17 11/22/17 13/27/17
f 38/88/18 36/84/18 33/77/18 31/71/18
f 40/94/19 38/89/19 31/72/19 30/69/19
f 34/79/20 32/74/20 39/92/20 35/82/20
