# Blender 3.3.1
# www.blender.org
o Plane.034
v -1.600000 -2.000000 -3.000000
v -2.300000 2.000000 -1.000000
v -1.600000 -2.000000 -1.000000
v -2.300000 2.000000 -3.000000
v -2.000000 0.000000 -3.000000
v -2.000000 0.000000 -1.000000
v -2.000000 2.000000 -3.000000
v -3.000000 2.000000 -3.000000
v -3.000000 2.000000 -1.000000
v -2.000000 2.000000 -1.000000
v -1.800000 -1.000000 -1.000000
v -1.800000 -1.000000 -3.000000
v -1.700000 -1.500000 -3.000000
v -1.700000 -1.500000 -1.000000
v -1.900000 -0.500000 -1.000000
v -1.900000 -0.500000 -3.000000
v -1.860551 -2.000000 -2.000000
v -2.560551 2.000000 -2.000000
v -2.260551 0.000000 -2.000000
v -3.000000 2.000000 -2.000000
v -2.260551 2.000000 -2.000000
v -2.060551 -0.688402 -2.000000
v -1.960551 -1.188402 -2.000000
v -2.160551 -0.188402 -2.000000
v -3.000000 -2.000000 -1.000000
v -1.000000 -2.000000 -1.000000
v -3.000000 -2.000000 -3.000000
v -1.000000 -2.000000 -3.000000
vn 0.9626 0.1468 -0.2279
vn 0.9404 0.2732 -0.2025
vn -0.0000 1.0000 -0.0000
vn 0.9626 0.1925 -0.1908
vn 0.9677 -0.0000 0.2521
vn 0.9626 0.1925 0.1908
vn 0.9677 -0.0000 -0.2521
vn 0.9404 0.2732 0.2025
vn 0.9626 0.1468 0.2279
vt 0.436869 0.822366
vt 0.188324 0.938484
vt 0.071114 0.933412
vt 0.436869 0.816748
vt 0.071114 0.939030
vt 0.188324 0.944103
vt 0.071114 0.939030
vt 0.055897 0.949175
vt 0.055897 0.943557
vt 0.076732 0.939030
vt 0.071114 0.933412
vt 0.076732 0.939030
vt 0.182706 0.944103
vt 0.182706 0.938484
vt 0.076732 0.933412
vt 0.055897 0.821821
vt 0.066588 0.811676
vt 0.066588 0.817294
vt 0.055897 0.827439
vt 0.061515 0.827439
vt 0.431251 0.822366
vt 0.431251 0.816748
vt 0.061515 0.821821
vt 0.061515 0.943557
vt 0.060970 0.811676
vt 0.060970 0.817294
vt 0.061515 0.949175
vt 0.436869 0.822366
vt 0.436869 0.816748
vt 0.188324 0.944103
vt 0.071114 0.939030
vt 0.071114 0.933412
vt 0.188324 0.938484
vt 0.055897 0.949175
vt 0.076732 0.939030
vt 0.071114 0.939030
vt 0.055897 0.943557
vt 0.182706 0.944103
vt 0.182706 0.938484
vt 0.076732 0.939030
vt 0.076732 0.933412
vt 0.071114 0.933412
vt 0.055897 0.827439
vt 0.066588 0.817294
vt 0.066588 0.811676
vt 0.055897 0.821821
vt 0.431251 0.822366
vt 0.061515 0.827439
vt 0.061515 0.821821
vt 0.431251 0.816748
vt 0.061515 0.949175
vt 0.060970 0.817294
vt 0.060970 0.811676
vt 0.061515 0.943557
vt 0.442539 0.807748
vt 0.445869 0.807748
vt 0.442539 0.811078
vt 0.445869 0.811078
s 0
f 17/28/1 23/47/1 14/22/1 3/4/1
f 24/51/2 19/34/2 6/9/2 15/24/2
f 18/30/3 20/38/3 9/14/3 2/2/3
f 23/48/4 22/43/4 11/16/4 14/23/4
f 19/35/5 5/7/5 7/11/5 21/41/5
f 21/40/3 18/31/3 2/3/3 10/15/3
f 22/44/4 24/52/4 15/25/4 11/17/4
f 12/18/6 16/26/6 24/53/6 22/45/6
f 7/12/3 4/5/3 18/32/3 21/41/3
f 6/10/7 19/36/7 21/42/7 10/15/7
f 13/20/6 12/19/6 22/46/6 23/49/6
f 4/6/3 8/13/3 20/39/3 18/33/3
f 16/27/8 5/8/8 19/37/8 24/54/8
f 1/1/9 13/21/9 23/50/9 17/29/9
f 25/55/3 26/56/3 28/58/3 27/57/3
