# Blender 3.3.1
# www.blender.org
o Plane.039
v -1.000000 0.000000 1.000000
v 1.000000 0.000000 1.000000
v -1.000000 -2.000000 -0.400000
v 1.000000 -2.000000 -0.400000
v -1.000000 0.000000 0.000000
v 1.000000 0.000000 0.000000
v -1.000000 0.000000 0.300000
v 1.000000 0.000000 0.300000
v 1.000000 -1.000000 -0.200000
v -1.000000 -1.000000 -0.200000
v 1.000000 -1.500000 -0.300000
v -1.000000 -1.500000 -0.300000
v -1.000000 -0.500000 -0.100000
v 1.000000 -0.500000 -0.100000
v 0.000000 0.000000 1.000000
v 0.000000 -2.000000 -0.122576
v 0.000000 0.000000 0.277424
v 0.000000 0.000000 0.577424
v 0.000000 -0.781054 0.077424
v 0.000000 -1.281054 -0.022576
v 0.000000 -0.281054 0.177424
v -1.000000 -2.000000 1.000000
v 1.000000 -2.000000 1.000000
v -1.000000 -2.000000 -1.000000
v 1.000000 -2.000000 -1.000000
vn -0.2480 0.1569 -0.9560
vn -0.0000 1.0000 -0.0000
vn -0.2233 0.1912 -0.9558
vn -0.2348 0.2411 -0.9417
vn 0.2348 0.2411 -0.9417
vn 0.2233 0.1912 -0.9558
vn 0.2480 0.1569 -0.9560
vt 0.203466 0.938955
vt 0.197998 0.938955
vt 0.441866 0.821895
vt 0.436398 0.821895
vt 0.071585 0.921004
vt 0.066117 0.921004
vt 0.203466 0.937588
vt 0.071585 0.922371
vt 0.066117 0.922371
vt 0.197998 0.937588
vt 0.050900 0.797901
vt 0.061044 0.838480
vt 0.066513 0.838480
vt 0.056368 0.797901
vt 0.436398 0.822579
vt 0.061044 0.837796
vt 0.066513 0.837796
vt 0.441866 0.822579
vt 0.071585 0.920321
vt 0.056368 0.798584
vt 0.050900 0.798584
vt 0.066117 0.920321
vt 0.200732 0.938955
vt 0.439132 0.821895
vt 0.068851 0.921004
vt 0.200732 0.937588
vt 0.068851 0.922371
vt 0.063779 0.838480
vt 0.053634 0.797901
vt 0.063779 0.837796
vt 0.439132 0.822579
vt 0.068851 0.920321
vt 0.053634 0.798584
vt 0.465236 0.815228
vt 0.453606 0.815228
vt 0.465236 0.803598
vt 0.453606 0.803598
s 0
f 20/31/1 11/15/1 4/4/1 16/24/1
f 18/27/2 8/9/2 6/6/2 17/25/2
f 15/23/2 2/2/2 8/10/2 18/26/2
f 21/33/3 14/21/3 9/11/3 19/29/3
f 19/28/3 9/12/3 11/16/3 20/30/3
f 17/25/4 6/6/4 14/22/4 21/32/4
f 5/5/5 17/25/5 21/32/5 13/19/5
f 10/13/6 19/28/6 20/30/6 12/17/6
f 13/20/6 21/33/6 19/29/6 10/14/6
f 1/1/2 15/23/2 18/26/2 7/7/2
f 7/8/2 18/27/2 17/25/2 5/5/2
f 12/18/7 20/31/7 16/24/7 3/3/7
f 22/34/2 23/35/2 25/37/2 24/36/2
