# Blender 3.3.1
# www.blender.org
mtllib ledge-side.mtl
o Cube.012
v 32.000000 64.000000 -32.000000
v 32.000000 0.000000 -32.000000
v -32.000000 64.000000 32.000000
v -32.000000 0.000000 32.000000
v -32.000000 64.000000 -32.000000
v -32.000000 0.000000 -32.000000
v -32.000000 64.000000 32.000000
v -32.000000 0.000000 32.000000
vn -0.0000 1.0000 -0.0000
vn -1.0000 -0.0000 -0.0000
vn -0.0000 -1.0000 -0.0000
vn 0.7071 -0.0000 0.7071
vn -0.0000 -0.0000 -1.0000
vt 0.486554 0.907340
vt 1.000000 1.000000
vt 0.000000 1.000000
vt 0.545179 0.028192
vt 1.000000 0.000000
vt 0.000000 0.000000
vt 0.486554 0.905160
vt 0.000000 1.000000
vt 0.545179 0.026496
vt 0.000000 0.000000
vt 0.482196 0.907340
vt 0.000000 1.000000
vt 1.000000 1.000000
vt 0.000000 0.000000
vt 0.548571 0.028192
vt 1.000000 0.000000
vt 1.000000 1.000000
vt 1.000000 0.000000
s 0
usemtl Material.012
f 1/1/1 5/11/1 3/7/1
f 8/18/2 7/17/2 5/12/2 6/14/2
f 6/15/3 2/4/3 4/9/3
f 2/5/4 1/2/4 3/8/4 4/10/4
f 6/16/5 5/13/5 1/3/5 2/6/5
