# Blender 3.3.1
# www.blender.org
mtllib lm1.mtl
o Cube.003
v 128.000000 256.000000 -128.000000
v 128.000000 0.000000 -128.000000
v 128.000000 256.000000 128.000000
v 128.000000 0.000000 128.000000
v -128.000000 256.000000 -128.000000
v -128.000000 0.000000 -128.000000
v -128.000000 256.000000 128.000000
v -128.000000 0.000000 128.000000
v 256.000000 32.000000 -128.000000
v 512.000000 288.000000 128.000000
v 256.000000 32.000000 64.000000
v 128.000000 0.000000 128.000000
v 128.000000 256.000000 128.000000
v 128.000000 0.000000 -128.000000
v 128.000000 256.000000 -128.000000
v 256.000000 32.000000 128.000000
v 256.000000 160.000000 64.000000
v 256.000000 288.000000 -128.000000
v 256.000000 288.000000 -128.000000
v 512.000000 32.000000 -128.000000
v 128.000000 256.000000 -64.000000
v 128.000000 0.000000 64.000000
v 128.000000 0.000000 -64.000000
v 128.000000 256.000000 64.000000
v 512.000000 288.000000 -128.000000
v 256.000000 288.000000 128.000000
v 256.000000 32.000000 128.000000
v 128.000000 128.000000 -64.000000
v 128.000000 128.000000 64.000000
v 512.000000 32.000000 128.000000
v 256.000000 160.000000 -64.000000
v 256.000000 32.000000 -64.000000
v 256.000000 32.000000 -128.000000
v 256.000000 288.000000 128.000000
v 256.000000 288.000000 64.000000
v 256.000000 32.000000 -64.000000
v 256.000000 32.000000 64.000000
v 256.000000 288.000000 -64.000000
v 256.000000 160.000000 64.000000
v 256.000000 160.000000 -64.000000
v 128.000000 256.000000 -128.000000
v 128.000000 0.000000 -128.000000
v -128.000000 256.000000 -128.000000
v -128.000000 0.000000 -128.000000
v -128.000000 256.000000 128.000000
v -128.000000 0.000000 128.000000
v 512.000000 288.000000 128.000000
v 256.000000 32.000000 128.000000
v 512.000000 32.000000 -128.000000
v 512.000000 288.000000 -128.000000
v 256.000000 288.000000 128.000000
v 512.000000 32.000000 128.000000
v 128.000000 192.000000 -128.000000
v -128.000000 192.000000 128.000000
v 512.000000 32.000000 -64.000000
v 320.000000 288.000000 128.000000
v 512.000000 224.000000 -128.000000
v 448.000000 32.000000 128.000000
v 512.000000 288.000000 64.000000
v 32.000000 256.000000 -128.000000
v -128.000000 192.000000 -128.000000
v 512.000000 32.000000 64.000000
v 256.000000 224.000000 128.000000
v 448.000000 288.000000 128.000000
v 320.000000 32.000000 128.000000
v 512.000000 288.000000 -64.000000
v 512.000000 224.000000 128.000000
v -128.000000 256.000000 -64.000000
v -128.000000 192.000000 64.000000
v -64.000000 192.000000 -128.000000
v -128.000000 0.000000 64.000000
v 512.000000 224.000000 64.000000
v 320.000000 224.000000 128.000000
v 64.000000 192.000000 -128.000000
v -128.000000 192.000000 -64.000000
v 512.000000 224.000000 -64.000000
v 448.000000 224.000000 128.000000
v 128.000000 32.000000 -128.000000
v -128.000000 32.000000 -128.000000
v 256.000000 64.000000 128.000000
v 512.000000 64.000000 128.000000
v 512.000000 32.000000 32.000000
v 416.000000 288.000000 128.000000
v 352.000000 32.000000 128.000000
v 512.000000 288.000000 -32.000000
v -128.000000 32.000000 128.000000
v 512.000000 32.000000 -32.000000
v 352.000000 288.000000 128.000000
v 416.000000 32.000000 128.000000
v 512.000000 288.000000 32.000000
v 512.000000 64.000000 -128.000000
v -128.000000 256.000000 32.000000
v -32.000000 256.000000 -128.000000
v -32.000000 0.000000 -128.000000
v -128.000000 32.000000 -64.000000
v -128.000000 32.000000 64.000000
v -128.000000 192.000000 32.000000
v 64.000000 32.000000 -128.000000
v -64.000000 32.000000 -128.000000
v -32.000000 192.000000 -128.000000
v 32.000000 0.000000 -128.000000
v 320.000000 64.000000 128.000000
v -128.000000 0.000000 -64.000000
v 448.000000 64.000000 128.000000
v -64.000000 0.000000 -128.000000
v 512.000000 224.000000 32.000000
v 352.000000 224.000000 128.000000
v 64.000000 256.000000 -128.000000
v 32.000000 192.000000 -128.000000
v -128.000000 192.000000 -32.000000
v 512.000000 224.000000 -32.000000
v 512.000000 64.000000 -64.000000
v 512.000000 64.000000 64.000000
v -128.000000 0.000000 -32.000000
v -64.000000 256.000000 -128.000000
v 416.000000 224.000000 128.000000
v 64.000000 0.000000 -128.000000
v 512.000000 64.000000 32.000000
v 512.000000 64.000000 -32.000000
v -128.000000 0.000000 32.000000
v 416.000000 64.000000 128.000000
v -128.000000 256.000000 -32.000000
v -128.000000 256.000000 64.000000
v 352.000000 64.000000 128.000000
v -32.000000 32.000000 -128.000000
v 32.000000 32.000000 -128.000000
v -128.000000 32.000000 32.000000
v -128.000000 32.000000 -32.000000
v 256.000000 32.000000 -64.000000
v 192.000000 16.000000 64.000000
v 128.000000 128.000000 -64.000000
v 256.000000 160.000000 64.000000
v 192.000000 144.000000 -64.000000
v 192.000000 144.000000 64.000000
v 128.000000 0.000000 -64.000000
v 256.000000 32.000000 64.000000
v 256.000000 160.000000 -64.000000
v 128.000000 128.000000 64.000000
v 128.000000 0.000000 64.000000
v 192.000000 16.000000 -64.000000
v 128.000000 32.000000 -64.000000
v 128.000000 32.000000 64.000000
v 160.000000 136.000000 64.000000
v 160.000000 8.000000 64.000000
v 128.000000 96.000000 -64.000000
v 256.000000 64.000000 -64.000000
v 128.000000 96.000000 64.000000
v 256.000000 64.000000 64.000000
v 224.000000 24.000000 -64.000000
v 256.000000 128.000000 -64.000000
v 224.000000 152.000000 -64.000000
v 256.000000 128.000000 64.000000
v 192.000000 48.000000 64.000000
v 192.000000 112.000000 64.000000
v 192.000000 112.000000 -64.000000
v 192.000000 48.000000 -64.000000
v 160.000000 104.000000 64.000000
v 224.000000 120.000000 -64.000000
v 224.000000 56.000000 -64.000000
v 160.000000 40.000000 64.000000
vn -0.0000 -1.0000 -0.0000
vn -0.0000 -0.0000 -1.0000
vn -0.0000 1.0000 -0.0000
vn 1.0000 -0.0000 -0.0000
vn -1.0000 -0.0000 -0.0000
vn -0.0000 -0.0000 1.0000
vn 0.2425 -0.9701 -0.0000
vn -0.2425 0.9701 -0.0000
vt 0.300000 0.900000
vt 0.300000 0.900000
vt 0.300000 0.100000
vt 0.300000 0.870000
vt 0.300000 0.070000
vt 0.300000 0.100000
vt -0.500000 0.900000
vt -0.500000 0.900000
vt -0.500000 0.100000
vt -0.500000 0.870000
vt -0.500000 0.070000
vt -0.500000 0.100000
vt 0.900000 0.170000
vt 1.500000 0.100000
vt 0.700000 0.300000
vt 0.100000 0.070000
vt 0.100000 0.870000
vt 0.900000 0.070000
vt 0.900000 0.870000
vt 0.700000 0.100000
vt 0.700000 0.300000
vt 0.900000 0.970000
vt 0.700000 0.900000
vt 0.700000 0.970000
vt 1.500000 0.900000
vt 1.500000 0.170000
vt 0.700000 0.870000
vt 0.300000 0.070000
vt 0.300000 0.300000
vt 0.700000 0.070000
vt 0.300000 0.700000
vt 0.300000 0.870000
vt 1.500000 0.900000
vt 1.500000 0.970000
vt 0.700000 0.100000
vt 0.100000 0.170000
vt 0.700000 0.470000
vt 0.300000 0.700000
vt 0.300000 0.470000
vt 0.300000 0.300000
vt 1.500000 0.100000
vt 0.700000 0.700000
vt 0.700000 0.700000
vt 0.700000 0.900000
vt 0.700000 0.170000
vt 0.100000 0.970000
vt 0.300000 0.970000
vt 0.700000 0.170000
vt 0.300000 0.170000
vt 0.700000 0.970000
vt 0.300000 0.570000
vt 0.700000 0.570000
vt 0.300000 0.870000
vt 0.300000 0.070000
vt 0.900000 0.870000
vt -0.500000 0.870000
vt 0.900000 0.070000
vt -0.500000 0.070000
vt 0.100000 0.870000
vt 0.100000 0.070000
vt 1.500000 0.970000
vt 0.100000 0.970000
vt 0.700000 0.170000
vt 0.900000 0.170000
vt 0.900000 0.970000
vt 0.700000 0.970000
vt 0.100000 0.170000
vt 1.500000 0.170000
vt 0.300000 0.670000
vt 0.100000 0.670000
vt 0.700000 0.170000
vt 0.900000 0.970000
vt 0.900000 0.770000
vt 1.300000 0.170000
vt 0.300000 0.970000
vt 0.000000 0.870000
vt 0.900000 0.670000
vt -0.500000 0.670000
vt 0.300000 0.170000
vt 0.700000 0.770000
vt 1.300000 0.970000
vt 0.900000 0.170000
vt 0.700000 0.970000
vt 1.500000 0.770000
vt 0.100000 0.770000
vt 0.700000 0.870000
vt 0.300000 0.670000
vt -0.300000 0.670000
vt 0.300000 0.070000
vt 0.300000 0.770000
vt 0.900000 0.770000
vt 0.100000 0.670000
vt 0.700000 0.670000
vt 0.700000 0.770000
vt 1.300000 0.770000
vt 0.300000 0.170000
vt 0.900000 0.170000
vt -0.500000 0.170000
vt 0.700000 0.270000
vt 0.100000 0.270000
vt 1.500000 0.270000
vt 0.400000 0.170000
vt 1.200000 0.970000
vt 1.000000 0.170000
vt 0.600000 0.970000
vt 0.100000 0.170000
vt 0.600000 0.170000
vt 1.000000 0.970000
vt 1.200000 0.170000
vt 0.400000 0.970000
vt 0.900000 0.270000
vt 0.400000 0.870000
vt -0.200000 0.870000
vt -0.200000 0.070000
vt 0.700000 0.170000
vt 0.300000 0.170000
vt 0.400000 0.670000
vt 0.100000 0.170000
vt -0.300000 0.170000
vt -0.200000 0.670000
vt 0.000000 0.070000
vt 0.900000 0.270000
vt 0.700000 0.070000
vt 1.300000 0.270000
vt -0.300000 0.070000
vt 0.400000 0.770000
vt 1.000000 0.770000
vt 0.100000 0.870000
vt 0.000000 0.670000
vt 0.600000 0.670000
vt 0.600000 0.770000
vt 0.700000 0.270000
vt 0.300000 0.270000
vt 0.600000 0.070000
vt -0.300000 0.870000
vt 1.200000 0.770000
vt 0.100000 0.070000
vt 0.400000 0.270000
vt 0.600000 0.270000
vt 0.400000 0.070000
vt 1.200000 0.270000
vt 0.600000 0.870000
vt 0.300000 0.870000
vt 1.000000 0.270000
vt -0.200000 0.170000
vt 0.000000 0.170000
vt 0.400000 0.170000
vt 0.600000 0.170000
vt 0.700000 0.170000
vt 0.500000 0.120000
vt 0.300000 0.470000
vt 0.700000 0.570000
vt 0.500000 0.520000
vt 0.500000 0.520000
vt 0.300000 0.070000
vt 0.700000 0.170000
vt 0.700000 0.570000
vt 0.300000 0.470000
vt 0.300000 0.070000
vt 0.500000 0.120000
vt 0.300000 0.170000
vt 0.300000 0.170000
vt 0.400000 0.495000
vt 0.400000 0.095000
vt 0.300000 0.370000
vt 0.700000 0.270000
vt 0.300000 0.370000
vt 0.700000 0.270000
vt 0.600000 0.145000
vt 0.700000 0.470000
vt 0.600000 0.545000
vt 0.700000 0.470000
vt 0.500000 0.220000
vt 0.500000 0.420000
vt 0.500000 0.420000
vt 0.500000 0.220000
vt 0.400000 0.395000
vt 0.600000 0.445000
vt 0.600000 0.245000
vt 0.400000 0.195000
s 0
usemtl Tile1
f 1/1/1 3/3/1 7/9/1 5/7/1
f 4/5/2 8/11/2 7/10/2 3/4/2
f 6/8/3 8/12/3 4/6/3 2/2/3
f 142/162/2 147/167/2 157/177/2 160/180/2
f 39/51/4 35/47/4 34/46/4 27/36/4 37/49/4
f 28/37/5 21/27/5 15/19/5 14/18/5 23/30/5
f 26/35/1 19/23/1 25/33/1 10/14/1
f 30/41/3 20/25/3 33/44/3 16/20/3
f 35/47/4 39/51/4 40/52/4 38/50/4
f 12/16/5 13/17/5 24/32/5 29/39/5 22/28/5
f 9/13/4 18/22/4 38/50/4 40/52/4 36/48/4
f 21/27/5 28/37/5 29/39/5 24/32/5
f 33/45/6 20/26/6 25/34/6 19/24/6
f 29/40/7 28/38/7 31/42/7 17/21/7
f 23/31/8 22/29/8 11/15/8 32/43/8
f 69/87/4 54/70/4 86/106/4 96/116/4
f 128/148/4 110/130/4 97/117/4 127/147/4
f 53/69/6 74/92/6 98/118/6 78/96/6
f 126/146/6 109/129/6 100/120/6 125/145/6
f 63/80/2 73/91/2 102/122/2 80/99/2
f 81/100/5 67/85/5 72/90/5 113/133/5
f 118/138/5 106/126/5 111/131/5 119/139/5
f 112/132/5 76/94/5 57/73/5 91/111/5
f 62/79/5 52/67/5 81/100/5 113/133/5
f 124/144/2 107/127/2 116/136/2 121/141/2
f 104/124/2 77/95/2 67/84/2 81/101/2
f 52/68/2 58/74/2 104/124/2 81/101/2
f 67/84/2 77/95/2 64/81/2 47/61/2
f 87/107/5 82/102/5 118/138/5 119/139/5
f 49/64/5 55/71/5 112/132/5 91/111/5
f 82/102/5 62/79/5 113/133/5 118/138/5
f 55/71/5 87/107/5 119/139/5 112/132/5
f 57/73/5 76/94/5 66/83/5 50/65/5
f 61/77/4 75/93/4 95/115/4 79/97/4
f 75/93/4 61/77/4 43/55/4 68/86/4
f 74/92/6 53/69/6 41/53/6 108/128/6
f 107/127/2 73/91/2 56/72/2 88/108/2
f 116/136/2 107/127/2 88/108/2 83/103/2
f 77/95/2 116/136/2 83/103/2 64/81/2
f 111/131/5 106/126/5 90/110/5 85/105/5
f 76/94/5 111/131/5 85/105/5 66/83/5
f 58/74/2 89/109/2 121/141/2 104/124/2
f 65/82/2 48/63/2 80/99/2 102/122/2
f 84/104/2 124/144/2 121/141/2 89/109/2
f 84/104/2 65/82/2 102/122/2 124/144/2
f 99/119/6 70/88/6 61/78/6 79/98/6
f 98/118/6 117/137/6 42/54/6 78/96/6
f 95/115/4 103/123/4 44/57/4 79/97/4
f 106/126/5 72/90/5 59/75/5 90/110/5
f 72/90/5 67/85/5 47/62/5 59/75/5
f 73/91/2 63/80/2 51/66/2 56/72/2
f 126/146/6 101/121/6 117/137/6 98/118/6
f 125/145/6 94/114/6 101/121/6 126/146/6
f 105/125/6 94/114/6 125/145/6 99/119/6
f 44/58/6 105/125/6 99/119/6 79/98/6
f 109/129/6 74/92/6 108/128/6 60/76/6
f 100/120/6 109/129/6 60/76/6 93/113/6
f 70/88/6 100/120/6 93/113/6 115/135/6
f 61/78/6 70/88/6 115/135/6 43/56/6
f 110/130/4 75/93/4 68/86/4 122/142/4
f 97/117/4 110/130/4 122/142/4 92/112/4
f 69/87/4 97/117/4 92/112/4 123/143/4
f 54/70/4 69/87/4 123/143/4 45/59/4
f 128/148/4 114/134/4 103/123/4 95/115/4
f 127/147/4 120/140/4 114/134/4 128/148/4
f 71/89/4 120/140/4 127/147/4 96/116/4
f 46/60/4 71/89/4 96/116/4 86/106/4
f 131/151/6 145/165/6 155/175/6 133/153/6
f 153/173/2 154/174/2 152/172/2 148/168/2
f 159/179/6 149/169/6 129/149/6 146/166/6
f 157/177/2 143/163/2 134/154/2 154/174/2
f 130/150/2 153/173/2 148/168/2 136/156/2
f 145/165/6 141/161/6 156/176/6 155/175/6
f 147/167/2 138/158/2 143/163/2 157/177/2
f 151/171/6 158/178/6 150/170/6 137/157/6
f 133/153/6 155/175/6 158/178/6 151/171/6
f 158/178/6 159/179/6 146/166/6 150/170/6
f 156/176/6 140/160/6 149/169/6 159/179/6
f 141/161/6 135/155/6 140/160/6 156/176/6
f 134/154/2 132/152/2 152/172/2 154/174/2
f 144/164/2 160/180/2 153/173/2 130/150/2
f 139/159/2 142/162/2 160/180/2 144/164/2
o Cube.004
v -128.000000 192.000000 64.000000
v -64.000000 192.000000 -128.000000
v 512.000000 224.000000 64.000000
v 320.000000 224.000000 128.000000
v 64.000000 192.000000 -128.000000
v -128.000000 192.000000 -64.000000
v 512.000000 224.000000 -64.000000
v 448.000000 224.000000 128.000000
v -128.000000 32.000000 -64.000000
v -128.000000 32.000000 64.000000
v -128.000000 192.000000 32.000000
v 64.000000 32.000000 -128.000000
v -64.000000 32.000000 -128.000000
v -32.000000 192.000000 -128.000000
v 320.000000 64.000000 128.000000
v 448.000000 64.000000 128.000000
v 512.000000 224.000000 32.000000
v 352.000000 224.000000 128.000000
v 32.000000 192.000000 -128.000000
v -128.000000 192.000000 -32.000000
v 512.000000 224.000000 -32.000000
v 512.000000 64.000000 -64.000000
v 512.000000 64.000000 64.000000
v 416.000000 224.000000 128.000000
v 512.000000 64.000000 32.000000
v 512.000000 64.000000 -32.000000
v 416.000000 64.000000 128.000000
v 352.000000 64.000000 128.000000
v -32.000000 32.000000 -128.000000
v 32.000000 32.000000 -128.000000
v -128.000000 32.000000 32.000000
v -128.000000 32.000000 -32.000000
v 192.000000 48.000000 64.000000
v 192.000000 112.000000 64.000000
v 192.000000 112.000000 -64.000000
v 192.000000 48.000000 -64.000000
v 160.000000 104.000000 64.000000
v 224.000000 120.000000 -64.000000
v 224.000000 56.000000 -64.000000
v 160.000000 40.000000 64.000000
vn 1.0000 -0.0000 -0.0000
vn -0.0000 -0.0000 1.0000
vn -0.0000 -0.0000 -1.0000
vn -1.0000 -0.0000 -0.0000
vt 0.300000 0.670000
vt -0.300000 0.670000
vt 0.300000 0.770000
vt 0.900000 0.770000
vt 0.100000 0.670000
vt 0.700000 0.670000
vt 0.700000 0.770000
vt 1.300000 0.770000
vt 0.700000 0.170000
vt 0.300000 0.170000
vt 0.400000 0.670000
vt 0.100000 0.170000
vt -0.300000 0.170000
vt -0.200000 0.670000
vt 0.900000 0.270000
vt 1.300000 0.270000
vt 0.400000 0.770000
vt 1.000000 0.770000
vt 0.000000 0.670000
vt 0.600000 0.670000
vt 0.600000 0.770000
vt 0.700000 0.270000
vt 0.300000 0.270000
vt 1.200000 0.770000
vt 0.400000 0.270000
vt 0.600000 0.270000
vt 1.200000 0.270000
vt 1.000000 0.270000
vt -0.200000 0.170000
vt 0.000000 0.170000
vt 0.400000 0.170000
vt 0.600000 0.170000
vt 0.500000 0.220000
vt 0.500000 0.420000
vt 0.500000 0.420000
vt 0.500000 0.220000
vt 0.400000 0.395000
vt 0.600000 0.445000
vt 0.600000 0.245000
vt 0.400000 0.195000
s 0
usemtl White1
f 169/189/9 166/186/9 180/200/9 192/212/9
f 172/192/10 165/185/10 179/199/10 190/210/10
f 175/195/11 164/184/11 178/198/11 188/208/11
f 183/203/12 163/183/12 177/197/12 185/205/12
f 186/206/12 181/201/12 167/187/12 182/202/12
f 187/207/11 184/204/11 168/188/11 176/196/11
f 189/209/10 174/194/10 162/182/10 173/193/10
f 191/211/9 171/191/9 161/181/9 170/190/9
f 197/217/11 194/214/11 193/213/11 200/220/11
f 195/215/10 196/216/10 199/219/10 198/218/10
