# Blender 3.3.1
# www.blender.org
mtllib ramp.mtl
o Cube.002
v -32.000000 0.000000 32.000000
v -32.000000 0.000000 -32.000000
v -32.000000 64.000000 -32.000000
v 32.000000 0.000000 32.000000
v 32.000000 0.000000 -32.000000
v 32.000000 64.000000 -32.000000
vn -1.0000 -0.0000 -0.0000
vn -0.0000 -0.0000 -1.0000
vn 1.0000 -0.0000 -0.0000
vn -0.0000 0.7071 0.7071
vt 1.000000 0.000000
vt 1.000000 1.000000
vt 0.000000 1.000000
vt 0.000000 0.000000
vt 1.000000 1.000000
vt 1.000000 0.000000
vt 1.000000 1.000000
vt 0.000000 1.000000
vt 0.000000 1.000000
vt 0.000000 0.000000
vt 1.000000 1.000000
vt 1.000000 0.000000
vt 0.000000 0.000000
s 0
usemtl Material.002
f 1/1/1 3/5/1 2/3/1
f 2/4/2 3/6/2 6/11/2 5/9/2
f 5/10/3 6/12/3 4/7/3
f 6/13/4 3/6/4 1/2/4 4/8/4
