# Blender 3.3.1
# www.blender.org
o Plane.001
v 6.000000 2.000000 -0.268129
v 6.000000 2.000000 -1.000000
v 5.000000 2.000000 -1.000000
v 7.000000 2.000000 -1.000000
v 5.000000 2.000000 0.000000
v 7.000000 2.000000 0.000000
v 5.000000 2.000000 0.500000
v 7.000000 2.000000 0.500000
v 7.000000 2.000000 -0.500000
v 5.000000 2.000000 -0.500000
v 5.000000 0.000000 1.000000
v 7.000000 0.000000 1.000000
v 5.000000 2.000000 1.000000
v 7.000000 2.000000 1.000000
v 6.000000 2.000000 0.231871
v 6.000000 2.000000 -0.768129
v 6.000000 0.000000 0.731871
v 6.000000 2.000000 0.731871
vn -0.0000 1.0000 -0.0000
vn -0.2590 -0.0000 0.9659
vn 0.2590 -0.0000 0.9659
vt 0.068851 0.951438
vt 0.180443 0.824630
vt 0.170298 0.954153
vt 0.167583 0.954153
vt 0.173013 0.954153
vt 0.066136 0.951438
vt 0.177728 0.824630
vt 0.183157 0.824630
vt 0.071566 0.951438
vt 0.456706 0.823272
vt 0.177728 0.823272
vt 0.183157 0.823272
vt 0.462136 0.823272
vt 0.173013 0.952796
vt 0.071566 0.952796
vt 0.066136 0.952796
vt 0.167583 0.952796
vt 0.446710 0.791629
vt 0.451843 0.791629
vt 0.446710 0.796763
vt 0.456706 0.821915
vt 0.462136 0.821915
vt 0.451843 0.796763
vt 0.459421 0.823272
vt 0.180443 0.823272
vt 0.068851 0.952796
vt 0.170298 0.952796
vt 0.449277 0.791629
vt 0.449277 0.796763
vt 0.459421 0.821915
s 0
f 16/27/1 9/14/1 4/5/1 2/3/1
f 15/25/1 8/12/1 6/8/1 1/2/1
f 18/30/1 14/22/1 8/13/1 15/24/1
f 1/1/1 6/9/1 9/15/1 16/26/1
f 17/28/2 12/19/2 14/23/2 18/29/2
f 11/18/3 17/28/3 18/29/3 13/20/3
f 5/6/1 1/1/1 16/26/1 10/16/1
f 13/21/1 18/30/1 15/24/1 7/10/1
f 7/11/1 15/25/1 1/2/1 5/7/1
f 10/17/1 16/27/1 2/3/1 3/4/1
