# Blender 3.3.1
# www.blender.org
o Plane.024
v -3.300000 0.000000 -7.000000
v -3.000000 0.000000 -5.000000
v -3.600000 0.000000 -5.000000
v -3.300000 0.000000 -5.000000
v -3.000000 0.000000 -7.000000
v -3.600000 0.000000 -7.000000
v -5.000000 0.500000 -5.000000
v -4.000000 0.500000 -5.000000
v -5.000000 0.500000 -7.000000
v -4.000000 0.500000 -7.000000
v -4.300000 0.500000 -5.000000
v -4.300000 0.500000 -7.000000
v -3.500000 0.000000 -6.000000
v -3.000000 0.000000 -6.000000
v -3.800000 0.000000 -6.000000
v -5.000000 0.500000 -6.000000
v -4.200000 0.500000 -6.000000
v -4.500000 0.500000 -6.000000
vn 0.7715 0.6172 0.1543
vn -0.0000 1.0000 -0.0000
vn 0.7715 0.6172 -0.1543
vt 0.178299 0.930702
vt 0.062733 0.926665
vt 0.183845 0.925156
vt 0.057187 0.921119
vt 0.062733 0.921119
vt 0.178299 0.925156
vt 0.183845 0.930702
vt 0.062733 0.921119
vt 0.057187 0.926665
vt 0.168154 0.945446
vt 0.062733 0.921119
vt 0.057187 0.926665
vt 0.168154 0.950991
vt 0.062733 0.926665
vt 0.173700 0.945446
vt 0.057187 0.921119
vt 0.057187 0.926665
vt 0.173700 0.950991
vt 0.178299 0.925156
vt 0.062733 0.921119
vt 0.062733 0.926665
vt 0.178299 0.930702
vt 0.183845 0.925156
vt 0.183845 0.930702
vt 0.057187 0.921119
vt 0.057187 0.926665
vt 0.062733 0.921119
vt 0.168154 0.945446
vt 0.168154 0.950991
vt 0.057187 0.926665
vt 0.062733 0.921119
vt 0.062733 0.926665
vt 0.057187 0.921119
vt 0.173700 0.945446
vt 0.173700 0.950991
vt 0.057187 0.926665
s 0
f 15/25/1 6/8/1 10/14/1 17/30/1
f 13/19/2 14/23/2 5/7/2 1/1/2
f 18/33/2 17/31/2 10/14/2 12/17/2
f 15/25/2 13/20/2 1/2/2 6/9/2
f 16/28/2 18/34/2 12/18/2 9/13/2
f 7/10/2 11/15/2 18/35/2 16/29/2
f 3/4/2 4/5/2 13/21/2 15/26/2
f 11/16/2 8/11/2 17/32/2 18/36/2
f 4/6/2 2/3/2 14/24/2 13/22/2
f 3/4/3 15/27/3 17/32/3 8/12/3
