# Blender 3.3.1
# www.blender.org
mtllib temple.mtl
o Cube
v 128.000000 256.000000 -128.000000
v 128.000000 0.000000 -128.000000
v 128.000000 256.000000 128.000000
v 128.000000 0.000000 128.000000
v -128.000000 256.000000 -128.000000
v -128.000000 0.000000 -128.000000
v -128.000000 256.000000 128.000000
v -128.000000 0.000000 128.000000
v 256.000000 32.000000 -128.000000
v 512.000000 288.000000 128.000000
v 256.000000 32.000000 64.000000
v 128.000000 0.000000 128.000000
v 128.000000 256.000000 128.000000
v 128.000000 0.000000 -128.000000
v 128.000000 256.000000 -128.000000
v 256.000000 32.000000 128.000000
v 256.000000 160.000000 64.000000
v 256.000000 288.000000 -128.000000
v 256.000000 288.000000 -128.000000
v 512.000000 32.000000 -128.000000
v 128.000000 256.000000 -64.000000
v 128.000000 0.000000 64.000000
v 128.000000 0.000000 -64.000000
v 128.000000 256.000000 64.000000
v 512.000000 288.000000 -128.000000
v 256.000000 288.000000 128.000000
v 256.000000 32.000000 128.000000
v 128.000000 128.000000 -64.000000
v 128.000000 128.000000 64.000000
v 512.000000 32.000000 128.000000
v 256.000000 160.000000 -64.000000
v 256.000000 32.000000 -64.000000
v 256.000000 32.000000 -128.000000
v 256.000000 288.000000 128.000000
v 256.000000 288.000000 64.000000
v 256.000000 32.000000 -64.000000
v 256.000000 32.000000 64.000000
v 256.000000 288.000000 -64.000000
v 256.000000 160.000000 64.000000
v 256.000000 160.000000 -64.000000
vn -0.0000 -1.0000 -0.0000
vn -0.0000 -0.0000 -1.0000
vn 1.0000 -0.0000 -0.0000
vn -0.0000 1.0000 -0.0000
vn -0.0000 -0.0000 1.0000
vn -1.0000 -0.0000 -0.0000
vn 0.2425 -0.9701 -0.0000
vn -0.2425 0.9701 -0.0000
vt 0.290166 0.962403
vt 0.278221 0.274304
vt 0.290166 0.962403
vt 0.278221 0.071372
vt 0.290166 0.713210
vt 0.278221 0.274304
vt 0.278221 0.071372
vt 0.290166 0.713210
vt 0.040973 0.962403
vt 0.973283 0.269716
vt 0.075289 0.274304
vt 0.973283 0.020524
vt 0.040973 0.962403
vt 0.075289 0.071372
vt 0.040973 0.713210
vt 0.075289 0.274304
vt 0.724090 0.269716
vt 0.075289 0.071372
vt 0.724090 0.020524
vt 0.040973 0.713210
vt 0.601197 0.362833
vt 0.663954 0.713210
vt 0.582619 0.299671
vt 0.719738 0.657720
vt 0.932636 0.811076
vt 0.414762 0.775508
vt 0.306373 0.364323
vt 0.306373 0.613515
vt 0.057181 0.364323
vt 0.057181 0.613515
vt 0.379687 0.096739
vt 0.414762 0.713210
vt 0.932636 0.935673
vt 0.414762 0.775508
vt 0.601197 0.612025
vt 0.414762 0.962403
vt 0.379687 0.299671
vt 0.968931 0.408527
vt 0.663954 0.962403
vt 0.582619 0.096739
vt 0.119479 0.613515
vt 0.808040 0.779927
vt 0.244075 0.364323
vt 0.290166 0.775508
vt 0.808040 0.779927
vt 0.119479 0.364323
vt 0.290166 0.900105
vt 0.244075 0.613515
vt 0.663954 0.962403
vt 0.968931 0.657720
vt 0.582619 0.299671
vt 0.414762 0.713210
vt 0.379687 0.299671
vt 0.352004 0.362833
vt 0.808040 0.904524
vt 0.119479 0.488919
vt 0.290166 0.900105
vt 0.808040 0.904524
vt 0.244075 0.488919
vt 0.290166 0.775508
vt 0.582619 0.096739
vt 0.719738 0.408527
vt 0.663954 0.713210
vt 0.932636 0.935673
vt 0.414762 0.900105
vt 0.932636 0.811076
vt 0.414762 0.900105
vt 0.414762 0.962403
vt 0.379687 0.096739
vt 0.352004 0.612025
vt 0.414302 0.612025
vt 0.538898 0.362833
vt 0.414302 0.362833
vt 0.538898 0.612025
vt 0.414302 0.487429
vt 0.538898 0.487429
s 0
usemtl Material
f 1/1/1 3/5/1 7/15/1 5/9/1
f 4/7/2 8/18/2 7/16/2 3/6/2
f 8/19/3 6/12/3 5/10/3 7/17/3
f 6/13/4 8/20/4 4/8/4 2/3/4
f 28/55/5 23/45/5 32/66/5 31/64/5
f 6/14/5 2/4/5 1/2/5 5/11/5
f 39/75/3 35/71/3 34/70/3 27/54/3 37/73/3
f 28/56/6 21/41/6 15/30/6 14/29/6 23/46/6
f 22/42/2 29/58/2 17/33/2 11/25/2
f 26/52/1 19/36/1 25/49/1 10/22/1
f 30/61/2 16/31/2 26/53/2 10/23/2
f 20/38/6 30/62/6 10/24/6 25/50/6
f 30/63/4 20/39/4 33/68/4 16/32/4
f 35/71/3 39/75/3 40/76/3 38/74/3
f 12/27/6 13/28/6 24/48/6 29/59/6 22/43/6
f 9/21/3 18/35/3 38/74/3 40/76/3 36/72/3
f 21/41/6 28/56/6 29/59/6 24/48/6
f 33/69/5 20/40/5 25/51/5 19/37/5
f 29/60/7 28/57/7 31/65/7 17/34/7
f 23/47/8 22/44/8 11/26/8 32/67/8
