# Blender 3.3.1
# www.blender.org
o Plane.008
v 11.300000 0.000000 1.000000
v 11.000000 0.000000 -1.000000
v 11.599999 0.000000 -1.000000
v 11.299999 0.000000 -1.000000
v 11.000000 0.000000 1.000000
v 11.600000 0.000000 1.000000
v 13.000000 2.000000 -1.000000
v 12.000000 2.000000 -1.000000
v 13.000000 2.000000 1.000000
v 12.000000 2.000000 1.000000
v 12.299999 2.000000 -1.000000
v 12.300000 2.000000 1.000000
v 11.500000 0.000000 0.000000
v 11.000000 0.000000 0.000000
v 11.800000 0.000000 0.000000
v 13.000000 2.000000 -0.000000
v 12.200000 2.000000 -0.000000
v 12.500000 2.000000 -0.000000
v 13.000000 2.000000 -0.500000
v 11.400000 0.000000 -0.500000
v 11.000000 0.000000 -0.500000
v 11.700000 0.000000 -0.500000
v 12.099999 2.000000 -0.500000
v 12.400000 2.000000 -0.500000
v 11.400001 0.000000 0.500000
v 11.000000 0.000000 0.500000
v 11.700000 0.000000 0.500000
v 12.100000 2.000000 0.500000
v 12.400001 2.000000 0.500000
v 13.000000 2.000000 0.500000
v 12.650000 2.000000 -1.000000
v 12.600000 2.000000 1.000000
v 12.750000 2.000000 -0.000000
v 12.700000 2.000000 -0.500000
v 12.700000 2.000000 0.500000
v 12.825000 2.000000 -1.000000
v 12.800000 2.000000 1.000000
v 12.875000 2.000000 -0.000000
v 12.849999 2.000000 -0.500000
v 12.850000 2.000000 0.500000
vn -0.9623 0.1925 -0.1924
vn -0.0000 1.0000 -0.0000
vn -0.9623 0.1925 0.1925
vt 0.444085 0.819676
vt 0.454468 0.819676
vt 0.192429 0.939452
vt 0.031503 0.934380
vt 0.188746 0.939452
vt 0.035186 0.934380
vt 0.454468 0.819676
vt 0.454468 0.809294
vt 0.444085 0.819676
vt 0.188746 0.939452
vt 0.031503 0.938063
vt 0.035186 0.934380
vt 0.175251 0.946485
vt 0.454468 0.819676
vt 0.031503 0.934380
vt 0.192429 0.939452
vt 0.444085 0.819676
vt 0.180561 0.824749
vt 0.056010 0.943670
vt 0.051258 0.943670
vt 0.177648 0.802063
vt 0.173093 0.802063
vt 0.056010 0.943670
vt 0.177648 0.802063
vt 0.051258 0.943670
vt 0.056010 0.938918
vt 0.173093 0.802063
vt 0.208501 0.938597
vt 0.183237 0.944088
vt 0.056010 0.943670
vt 0.177648 0.802063
vt 0.173093 0.806618
vt 0.062979 0.953270
vt 0.051258 0.943670
vt 0.177648 0.802063
vt 0.173093 0.802063
vt 0.061948 0.949316
vt 0.208501 0.933845
vt 0.188746 0.943135
vt 0.056010 0.938918
vt 0.051258 0.938918
vt 0.188746 0.943135
vt 0.035186 0.938063
vt 0.056010 0.938918
vt 0.192429 0.943135
vt 0.051258 0.938918
vt 0.035186 0.934380
vt 0.031503 0.938063
vt 0.056010 0.938918
vt 0.051258 0.943670
vt 0.035186 0.938063
vt 0.062979 0.953132
vt 0.051258 0.938918
vt 0.031503 0.938063
vt 0.192429 0.943135
vt 0.189788 0.942987
vt 0.444085 0.809294
vt 0.454468 0.809294
vt 0.177648 0.806618
vt 0.173093 0.806618
vt 0.454468 0.809294
vt 0.177648 0.806618
vt 0.444085 0.809294
vt 0.173093 0.806618
vt 0.177648 0.802063
vt 0.444085 0.819676
vt 0.454468 0.809294
vt 0.177648 0.806618
vt 0.444085 0.809294
vt 0.180561 0.814366
vt 0.177648 0.806618
vt 0.173093 0.806618
vt 0.175251 0.936102
vt 0.183237 0.948644
vt 0.190587 0.939452
vt 0.175370 0.824749
vt 0.062029 0.953498
vt 0.062910 0.953270
vt 0.062176 0.953429
vt 0.061882 0.949316
vt 0.189719 0.943125
vt 0.188984 0.943284
vt 0.190587 0.943135
vt 0.189719 0.942987
vt 0.175370 0.814366
vt 0.175370 0.806618
vt 0.062176 0.953560
vt 0.062029 0.953197
vt 0.061882 0.949448
vt 0.189667 0.939452
vt 0.061954 0.953498
vt 0.177847 0.946485
vt 0.189684 0.943125
vt 0.209689 0.938597
vt 0.184376 0.944088
vt 0.188951 0.943284
vt 0.189684 0.942987
vt 0.209689 0.933845
vt 0.189667 0.943135
vt 0.062143 0.953560
vt 0.061954 0.953197
vt 0.177847 0.936102
vt 0.184376 0.948644
vt 0.188951 0.943416
s 0
f 27/63/1 6/8/1 10/14/1 28/66/1
f 25/57/2 26/61/2 5/7/2 1/1/2
f 29/69/2 28/67/2 10/14/2 12/17/2
f 27/63/2 25/58/2 1/2/2 6/9/2
f 35/85/2 29/70/2 12/18/2 32/76/2
f 24/52/2 18/33/2 33/78/2
f 22/46/2 20/40/2 13/19/2 15/25/2
f 24/53/2 23/49/2 17/30/2 18/34/2
f 20/41/2 21/44/2 14/23/2 13/20/2
f 22/46/3 15/26/3 17/30/3 23/50/3
f 3/4/3 22/47/3 23/51/3 8/11/3
f 4/5/2 2/3/2 21/45/2 20/42/2
f 11/15/2 8/12/2 23/51/2 24/54/2
f 3/4/2 4/6/2 20/43/2 22/48/2
f 31/75/2 11/16/2 24/55/2 34/83/2
f 18/35/2 29/71/2 35/86/2
f 15/27/2 13/21/2 25/59/2 27/64/2
f 18/36/2 17/31/2 28/68/2 29/72/2
f 13/22/2 14/24/2 26/62/2 25/60/2
f 15/27/1 27/65/1 28/68/1 17/32/1
f 33/79/2 35/87/2 40/100/2
f 36/90/2 31/75/2 34/83/2 39/99/2
f 39/97/2 34/84/2 33/81/2 38/93/2
f 40/101/2 35/88/2 32/77/2 37/91/2
f 30/73/2 40/102/2 37/92/2 9/13/2
f 19/38/2 39/98/2 38/94/2 16/28/2
f 7/10/2 36/90/2 39/99/2 19/39/2
f 16/29/2 38/95/2 40/103/2 30/74/2
f 33/80/2 18/37/2 35/89/2
f 34/84/2 24/56/2 33/81/2
f 38/96/2 33/82/2 40/104/2
