# Blender 3.3.1
# www.blender.org
mtllib corner-out.mtl
o Plane.007
v 1.000000 0.000000 -1.000000
v 3.000000 0.000000 -1.000000
v 3.000000 0.000000 -3.000000
v 1.000000 0.000000 -2.000000
v 2.000000 0.000000 -1.000000
v 3.000000 0.000000 -2.000000
v 2.000000 0.000000 -3.000000
v 2.000000 0.000000 -2.000000
v 2.000000 2.000000 -3.000000
v 1.000000 2.000000 -3.000000
v 1.000000 2.000000 -2.000000
v 2.000000 2.000000 -2.000000
vn -0.0000 1.0000 -0.0000
vn -0.0000 -0.0000 1.0000
vn 1.0000 -0.0000 -0.0000
vt 0.750000 1.000000
vt 0.750000 0.750000
vt 1.000000 0.750000
vt 0.000000 0.750000
vt 0.875000 1.000000
vt 0.750000 0.875000
vt 0.875000 0.750000
vt 1.000000 0.875000
vt 0.125000 0.750000
vt 0.125000 0.750000
vt 0.875000 0.875000
vt 0.000000 0.750000
vt 1.000000 0.875000
vt 0.125000 1.000000
vt 1.000000 1.000000
vt 0.000000 1.000000
vt 0.875000 1.000000
vt 0.125000 1.000000
vt 0.875000 0.875000
vt 0.000000 1.000000
s 0
usemtl Tiles1
f 8/11/1 6/7/1 3/3/1 7/8/1
f 4/4/2 8/10/2 12/18/2 11/16/2
f 1/1/1 5/6/1 8/11/1 4/5/1
f 5/6/1 2/2/1 6/7/1 8/11/1
f 11/17/1 12/19/1 9/13/1 10/15/1
f 8/12/3 7/9/3 9/14/3 12/20/3
