# Blender 3.3.1
# www.blender.org
mtllib corner-edge.mtl
o Plane.069
v 17.000004 0.000000 7.000000
v 16.999996 0.000000 5.000000
v 16.999996 2.000000 5.000000
v 14.999997 2.000000 5.000005
v 15.000003 2.000000 7.000005
v 17.000004 2.000000 7.000000
v 15.000002 0.000000 7.000005
v 17.000002 0.000000 6.999999
v 17.000002 2.000000 6.999999
v 15.000002 2.000000 7.000005
vn 1.0000 -0.0000 -0.0000
vn -0.0000 1.0000 -0.0000
vn -0.0000 -0.0000 1.0000
vt 0.500000 0.500000
vt 0.750000 0.500000
vt 0.750000 0.750000
vt 0.500000 0.500000
vt 0.250000 0.500000
vt 0.250000 0.250000
vt 0.500000 0.750000
vt 0.500000 0.250000
vt 0.500000 0.500000
vt 0.750000 0.500000
vt 0.750000 0.750000
vt 0.500000 0.750000
s 0
usemtl Tiles1
f 1/1/1 2/2/1 3/3/1 6/7/1
f 6/8/2 3/4/2 4/5/2 5/6/2
f 7/9/3 8/10/3 9/11/3 10/12/3
