# Blender 3.3.1
# www.blender.org
mtllib side.mtl
o Plane.002
v -1.000000 0.000000 1.000000
v -1.000000 0.000000 -1.000000
v -2.000000 0.000000 1.000000
v -2.000000 0.000000 -1.000000
v -2.000000 2.000000 -1.000000
v -3.000000 2.000000 -1.000000
v -3.000000 2.000000 1.000000
v -2.000000 2.000000 1.000000
vn 1.0000 -0.0000 -0.0000
vn -0.0000 1.0000 -0.0000
vt 0.250000 0.750000
vt 0.500000 0.750000
vt 0.000000 0.750000
vt 0.250000 0.875000
vt 0.250000 0.750000
vt 0.500000 0.875000
vt 0.250000 1.000000
vt 0.500000 0.875000
vt 0.500000 1.000000
vt 0.250000 1.000000
vt 0.000000 1.000000
vt 0.250000 0.875000
s 0
usemtl Tiles1
f 3/3/1 4/5/1 5/7/1 8/11/1
f 1/1/2 2/2/2 4/6/2 3/4/2
f 8/12/2 5/8/2 6/9/2 7/10/2
